<svg xmlns="http://www.w3.org/2000/svg" xmlns:xlink="http://www.w3.org/1999/xlink" width="1366" zoomAndPan="magnify" viewBox="0 0 1024.5 576" height="768" preserveAspectRatio="xMidYMid meet" version="1.0"><defs><clipPath id="23cee067d8"><path d="M 399.160156 426 L 624.800781 426 L 624.800781 547.402344 L 399.160156 547.402344 Z M 399.160156 426 " clip-rule="nonzero"/></clipPath><clipPath id="0e95ccbaac"><path d="M 414 426 L 601 426 L 601 547.402344 L 414 547.402344 Z M 414 426 " clip-rule="nonzero"/></clipPath><clipPath id="29fe87e3cb"><path d="M 426.089844 424.417969 L 596.972656 424.417969 L 596.972656 443.46875 L 426.089844 443.46875 Z M 426.089844 424.417969 " clip-rule="nonzero"/></clipPath><clipPath id="091cb2870b"><path d="M 596.847656 428.941406 C 596.847656 436.8125 558.640625 443.191406 511.507812 443.191406 C 464.375 443.191406 426.167969 436.8125 426.167969 428.941406 C 426.167969 421.070312 464.375 414.691406 511.507812 414.691406 C 558.640625 414.691406 596.847656 421.070312 596.847656 428.941406 " clip-rule="nonzero"/></clipPath><clipPath id="dc6e28ade3"><path d="M 426.089844 425 L 568.933594 425 L 568.933594 443.46875 L 426.089844 443.46875 Z M 426.089844 425 " clip-rule="nonzero"/></clipPath><clipPath id="0086cd1348"><path d="M 596.847656 428.941406 C 596.847656 436.8125 558.640625 443.191406 511.507812 443.191406 C 464.375 443.191406 426.167969 436.8125 426.167969 428.941406 C 426.167969 421.070312 464.375 414.691406 511.507812 414.691406 C 558.640625 414.691406 596.847656 421.070312 596.847656 428.941406 " clip-rule="nonzero"/></clipPath><clipPath id="f2dca93e0c"><path d="M 496 433.414062 L 596.972656 433.414062 L 596.972656 443.46875 L 496 443.46875 Z M 496 433.414062 " clip-rule="nonzero"/></clipPath><clipPath id="68cce7360b"><path d="M 596.847656 428.941406 C 596.847656 436.8125 558.640625 443.191406 511.507812 443.191406 C 464.375 443.191406 426.167969 436.8125 426.167969 428.941406 C 426.167969 421.070312 464.375 414.691406 511.507812 414.691406 C 558.640625 414.691406 596.847656 421.070312 596.847656 428.941406 " clip-rule="nonzero"/></clipPath><clipPath id="24a9ddbdf5"><path d="M 458 316.515625 L 508 316.515625 L 508 415 L 458 415 Z M 458 316.515625 " clip-rule="nonzero"/></clipPath></defs><path fill="#940000" d="M 593.988281 443.019531 C 597.890625 443.082031 600.914062 442.519531 602.941406 441.996094 C 605.089844 441.445312 615.578125 438.507812 618.761719 437.09375 C 618.941406 437.015625 619.453125 436.785156 620.097656 436.867188 C 621.160156 437 621.917969 437.914062 622.375 438.621094 C 622.925781 439.136719 623.609375 439.964844 623.699219 441.050781 C 623.738281 441.5 623.660156 441.835938 623.613281 442.066406 C 623.425781 442.929688 623.214844 444.214844 623.109375 446.035156 C 623.132812 446.277344 623.171875 446.976562 622.753906 447.710938 C 622.46875 448.203125 622.039062 448.613281 621.496094 448.859375 C 617.300781 449.753906 611.804688 451.355469 605.816406 454.371094 C 600.164062 457.21875 595.792969 460.453125 592.636719 463.164062 C 593.089844 456.449219 593.539062 449.734375 593.988281 443.019531 " fill-opacity="1" fill-rule="nonzero"/><path fill="#940000" d="M 430.007812 443.019531 C 426.105469 443.082031 423.082031 442.519531 421.054688 441.996094 C 418.910156 441.445312 408.421875 438.507812 405.234375 437.09375 C 405.058594 437.015625 404.542969 436.785156 403.898438 436.867188 C 402.835938 437 402.078125 437.914062 401.625 438.621094 C 401.070312 439.136719 400.390625 439.964844 400.296875 441.050781 C 400.257812 441.5 400.335938 441.835938 400.386719 442.066406 C 400.570312 442.929688 400.78125 444.214844 400.890625 446.035156 C 400.863281 446.277344 400.828125 446.976562 401.246094 447.710938 C 401.527344 448.203125 401.960938 448.613281 402.5 448.859375 C 406.699219 449.753906 412.191406 451.355469 418.183594 454.371094 C 423.832031 457.21875 428.207031 460.453125 431.359375 463.164062 C 430.910156 456.449219 430.457031 449.734375 430.007812 443.019531 " fill-opacity="1" fill-rule="nonzero"/><g clip-path="url(#23cee067d8)"><path fill="#f71708" d="M 624.433594 448.46875 L 623.699219 441.050781 C 623.246094 440.34375 622.488281 439.429688 621.425781 439.296875 C 620.777344 439.214844 620.265625 439.449219 620.089844 439.527344 C 616.902344 440.941406 606.417969 443.875 604.269531 444.425781 C 602.457031 444.894531 599.851562 445.390625 596.539062 445.449219 C 597.105469 439.171875 597.671875 432.898438 598.238281 426.621094 C 580.234375 433.753906 550.070312 443.136719 511.765625 443.191406 C 473.109375 443.246094 442.6875 433.777344 424.625 426.621094 C 425.3125 432.890625 425.992188 439.160156 426.675781 445.425781 C 423.730469 445.3125 421.394531 444.855469 419.730469 444.425781 C 417.582031 443.875 407.09375 440.941406 403.910156 439.527344 C 403.734375 439.449219 403.21875 439.214844 402.574219 439.296875 C 401.507812 439.429688 400.753906 440.34375 400.296875 441.050781 L 399.566406 448.46875 C 399.445312 449.660156 400.09375 450.796875 401.175781 451.289062 C 405.375 452.183594 410.867188 453.785156 416.855469 456.800781 C 421.78125 459.28125 425.734375 462.058594 428.757812 464.523438 C 430.75 482.820312 432.742188 501.117188 434.738281 519.414062 C 435.472656 526.183594 439.871094 532.011719 446.191406 534.550781 C 461.417969 540.671875 484.390625 547.417969 512.757812 547.253906 C 540.863281 547.089844 563.578125 540.207031 578.671875 533.988281 C 584.980469 531.390625 589.308594 525.488281 589.925781 518.691406 C 591.542969 500.761719 593.164062 482.832031 594.78125 464.902344 C 597.859375 462.347656 601.960938 459.410156 607.140625 456.800781 C 613.128906 453.785156 618.625 452.183594 622.824219 451.289062 C 623.902344 450.796875 624.554688 449.660156 624.433594 448.46875 " fill-opacity="1" fill-rule="nonzero"/></g><path fill="#ffb0ae" d="M 570.527344 449.089844 C 570.453125 469.867188 570.375 490.640625 570.300781 511.414062 C 568.953125 513.839844 566.464844 517.683594 562.582031 520.695312 C 558.355469 523.96875 554.460938 524.71875 552.269531 524.90625 C 552.269531 500.0625 552.269531 475.222656 552.269531 450.382812 C 554.996094 450.585938 557.996094 450.632812 561.222656 450.417969 C 564.601562 450.1875 567.71875 449.703125 570.527344 449.089844 " fill-opacity="1" fill-rule="nonzero"/><g clip-path="url(#0e95ccbaac)"><path fill="#b70200" d="M 600.644531 445.136719 C 599.429688 445.300781 598.0625 445.421875 596.539062 445.449219 C 597.105469 439.171875 597.671875 432.898438 598.238281 426.621094 C 595.289062 427.789062 592.007812 429.019531 588.425781 430.257812 C 588.589844 438.535156 588.945312 463.742188 586.707031 489.117188 C 586.015625 496.941406 584.855469 507.320312 577.648438 517.179688 C 576.996094 518.070312 574.988281 520.75 571.90625 523.589844 C 558.636719 535.804688 540.75 536.921875 529.5 537.625 C 513.847656 538.605469 502.324219 535.742188 495.464844 533.972656 C 485.363281 531.371094 480.148438 529.964844 474.824219 525.363281 C 466.648438 518.289062 464.09375 508.761719 461.519531 499.152344 C 459.820312 492.808594 459.070312 487.363281 458.207031 474.621094 C 457.554688 465.042969 456.898438 452.167969 456.738281 436.75 C 451.121094 435.410156 445.148438 433.765625 438.894531 431.746094 C 433.527344 430.011719 428.753906 428.257812 424.625 426.621094 C 425.3125 432.890625 425.992188 439.160156 426.675781 445.425781 C 423.730469 445.3125 421.394531 444.855469 419.730469 444.425781 C 419.21875 444.296875 418.234375 444.027344 416.988281 443.679688 L 414.082031 455.488281 C 414.992188 455.890625 415.917969 456.332031 416.855469 456.800781 C 421.78125 459.28125 425.734375 462.058594 428.757812 464.523438 C 430.75 482.820312 432.742188 501.117188 434.738281 519.414062 C 435.472656 526.183594 439.871094 532.011719 446.191406 534.550781 C 461.417969 540.671875 484.390625 547.417969 512.757812 547.253906 C 540.863281 547.089844 563.578125 540.207031 578.671875 533.988281 C 584.980469 531.390625 589.308594 525.488281 589.925781 518.691406 C 591.542969 500.761719 593.164062 482.832031 594.78125 464.902344 C 596.300781 463.636719 598.074219 462.28125 600.105469 460.917969 L 600.644531 445.136719 " fill-opacity="1" fill-rule="nonzero"/></g><path fill="#3c3c3c" d="M 596.847656 428.941406 C 596.847656 436.8125 558.640625 443.191406 511.507812 443.191406 C 464.375 443.191406 426.167969 436.8125 426.167969 428.941406 C 426.167969 421.070312 464.375 414.691406 511.507812 414.691406 C 558.640625 414.691406 596.847656 421.070312 596.847656 428.941406 " fill-opacity="1" fill-rule="nonzero"/><g clip-path="url(#29fe87e3cb)"><g clip-path="url(#091cb2870b)"><path fill="#ff8822" d="M 574.15625 432.753906 C 573.667969 432.664062 573.265625 432.328125 573.066406 431.867188 C 572.449219 430.464844 571.039062 429.484375 569.394531 429.484375 C 568.191406 429.484375 567.113281 430.011719 566.382812 430.847656 C 566.050781 431.222656 565.558594 431.402344 565.066406 431.335938 C 563.207031 431.085938 561.28125 430.847656 559.300781 430.625 C 558.898438 430.578125 558.539062 430.363281 558.285156 430.046875 C 557.964844 429.648438 557.480469 429.382812 556.929688 429.359375 C 556.457031 429.335938 556.019531 429.496094 555.679688 429.773438 C 555.367188 430.03125 554.972656 430.164062 554.566406 430.125 C 554.234375 430.09375 553.90625 430.058594 553.570312 430.027344 C 553.160156 429.988281 552.777344 429.785156 552.53125 429.453125 C 552.160156 428.957031 551.578125 428.625 550.914062 428.59375 L 550.777344 428.589844 C 550.140625 428.601562 549.570312 428.238281 549.324219 427.652344 C 548.589844 425.90625 546.902344 424.648438 544.882812 424.554688 C 543.167969 424.476562 541.609375 425.261719 540.636719 426.527344 C 540.257812 427.019531 539.605469 427.210938 539.011719 427.027344 C 538.597656 426.894531 538.164062 426.816406 537.707031 426.796875 C 536.242188 426.730469 534.890625 427.285156 533.910156 428.230469 C 533.621094 428.507812 533.226562 428.644531 532.828125 428.628906 C 526.011719 428.335938 518.871094 428.179688 511.507812 428.179688 C 499.234375 428.179688 487.566406 428.613281 477.019531 429.390625 C 476.320312 429.441406 475.660156 429.007812 475.46875 428.328125 C 474.945312 426.46875 473.238281 425.109375 471.210938 425.109375 C 469.625 425.109375 468.234375 425.945312 467.453125 427.203125 C 467.132812 427.71875 466.535156 427.992188 465.9375 427.886719 C 465.691406 427.84375 465.433594 427.820312 465.171875 427.820312 C 463.449219 427.820312 461.960938 428.800781 461.230469 430.238281 C 461 430.683594 460.574219 430.996094 460.078125 431.058594 C 457.101562 431.433594 454.277344 431.839844 451.625 432.277344 C 451.214844 432.34375 450.792969 432.246094 450.472656 431.984375 C 450.121094 431.703125 449.675781 431.53125 449.1875 431.53125 C 448.441406 431.53125 447.792969 431.929688 447.4375 432.523438 C 447.222656 432.878906 446.867188 433.125 446.457031 433.207031 C 433.804688 435.691406 426.167969 438.910156 426.167969 442.429688 C 426.167969 450.300781 464.375 456.679688 511.507812 456.679688 C 558.640625 456.679688 596.847656 450.300781 596.847656 442.429688 C 596.847656 438.695312 588.238281 435.296875 574.15625 432.753906 " fill-opacity="1" fill-rule="nonzero"/></g></g><g clip-path="url(#dc6e28ade3)"><g clip-path="url(#0086cd1348)"><path fill="#ff4200" d="M 520.390625 450.578125 C 517.707031 450.585938 502.976562 450.660156 484.429688 447.582031 C 471.496094 445.433594 463.800781 442.929688 463.363281 439.144531 C 463.222656 437.90625 463.898438 436.910156 464.519531 436.019531 C 466.921875 432.585938 471.582031 430.605469 489.492188 429.691406 C 496.945312 429.308594 499.113281 429.179688 506.085938 428.835938 C 507.402344 428.769531 513.226562 428.945312 516.800781 428.207031 C 515.050781 428.191406 513.285156 428.179688 511.507812 428.179688 C 499.234375 428.179688 487.566406 428.613281 477.019531 429.390625 C 476.320312 429.441406 475.660156 429.007812 475.46875 428.328125 C 474.945312 426.46875 473.238281 425.109375 471.210938 425.109375 C 469.625 425.109375 468.234375 425.945312 467.453125 427.203125 C 467.132812 427.71875 466.535156 427.992188 465.9375 427.886719 C 465.691406 427.84375 465.433594 427.820312 465.171875 427.820312 C 463.449219 427.820312 461.960938 428.800781 461.230469 430.238281 C 461 430.683594 460.574219 430.996094 460.078125 431.058594 C 457.101562 431.433594 454.277344 431.839844 451.625 432.277344 C 451.214844 432.34375 450.792969 432.246094 450.472656 431.984375 C 450.121094 431.703125 449.675781 431.53125 449.1875 431.53125 C 448.441406 431.53125 447.792969 431.929688 447.4375 432.523438 C 447.222656 432.878906 446.867188 433.125 446.457031 433.207031 C 433.804688 435.691406 426.167969 438.910156 426.167969 442.429688 C 426.167969 450.300781 464.375 456.679688 511.507812 456.679688 C 533.605469 456.679688 553.742188 455.277344 568.902344 452.976562 C 561.601562 451.773438 544.875 450.484375 520.390625 450.578125 " fill-opacity="1" fill-rule="nonzero"/></g></g><g clip-path="url(#f2dca93e0c)"><g clip-path="url(#68cce7360b)"><path fill="#ffbf10" d="M 496.414062 439.871094 C 496.414062 443.183594 519.273438 445.867188 547.46875 445.867188 C 570.917969 445.867188 590.671875 444.011719 596.660156 441.480469 C 595.9375 439.648438 593.136719 437.90625 588.648438 436.328125 C 579.355469 434.839844 564.371094 433.878906 547.46875 433.878906 C 519.273438 433.878906 496.414062 436.558594 496.414062 439.871094 " fill-opacity="1" fill-rule="nonzero"/></g></g><path fill="#e5a2a2" d="M 511.507812 416.570312 C 488.8125 416.570312 467.492188 418.042969 451.472656 420.71875 C 443.765625 422.003906 437.738281 423.492188 433.5625 425.140625 C 429.207031 426.859375 428.046875 428.339844 428.046875 428.941406 C 428.046875 429.542969 429.207031 431.019531 433.5625 432.738281 C 437.738281 434.390625 443.765625 435.878906 451.472656 437.164062 C 467.492188 439.839844 488.8125 441.3125 511.507812 441.3125 C 534.203125 441.3125 555.523438 439.839844 571.542969 437.164062 C 579.25 435.878906 585.277344 434.390625 589.449219 432.738281 C 593.808594 431.019531 594.96875 429.542969 594.96875 428.941406 C 594.96875 428.339844 593.808594 426.859375 589.449219 425.140625 C 585.277344 423.492188 579.25 422.003906 571.542969 420.71875 C 555.523438 418.042969 534.203125 416.570312 511.507812 416.570312 M 511.507812 445.070312 C 488.613281 445.070312 467.070312 443.578125 450.855469 440.871094 C 442.886719 439.539062 436.605469 437.980469 432.183594 436.234375 C 426.871094 434.136719 424.289062 431.753906 424.289062 428.941406 C 424.289062 426.128906 426.871094 423.742188 432.183594 421.648438 C 436.605469 419.902344 442.886719 418.34375 450.855469 417.011719 C 467.070312 414.304688 488.613281 412.8125 511.507812 412.8125 C 534.402344 412.8125 555.941406 414.304688 572.160156 417.011719 C 580.128906 418.34375 586.410156 419.902344 590.828125 421.648438 C 596.144531 423.742188 598.726562 426.128906 598.726562 428.941406 C 598.726562 431.753906 596.144531 434.136719 590.828125 436.234375 C 586.410156 437.980469 580.128906 439.539062 572.160156 440.871094 C 555.941406 443.578125 534.402344 445.070312 511.507812 445.070312 " fill-opacity="1" fill-rule="nonzero"/><path fill="#715f30" d="M 478.917969 429.253906 C 478.203125 427.449219 477.789062 425.328125 477.789062 423.054688 C 477.789062 422.152344 477.855469 421.273438 477.980469 420.429688 C 476.515625 419.890625 475.121094 419.082031 473.820312 418.03125 C 479.652344 417.546875 485.804688 417.179688 492.179688 416.933594 C 492.875 418.726562 493.277344 420.816406 493.277344 423.054688 C 493.277344 425.03125 492.964844 426.894531 492.410156 428.539062 C 487.757812 428.714844 483.25 428.957031 478.917969 429.253906 " fill-opacity="1" fill-rule="nonzero"/><path fill="#ff971d" d="M 485.535156 434.976562 C 483.074219 434.976562 480.882812 433.207031 479.460938 430.453125 C 482.242188 430.144531 485.542969 429.890625 489.492188 429.691406 C 490.410156 429.644531 491.246094 429.601562 492.023438 429.5625 C 490.640625 432.820312 488.253906 434.976562 485.535156 434.976562 " fill-opacity="1" fill-rule="nonzero"/><path fill="#ff6404" d="M 479.460938 430.453125 C 479.265625 430.074219 479.085938 429.671875 478.917969 429.253906 C 483.25 428.957031 487.757812 428.714844 492.410156 428.539062 C 492.292969 428.890625 492.164062 429.230469 492.023438 429.5625 C 491.246094 429.601562 490.410156 429.644531 489.492188 429.691406 C 485.542969 429.890625 482.242188 430.144531 479.460938 430.453125 " fill-opacity="1" fill-rule="nonzero"/><g clip-path="url(#24a9ddbdf5)"><path fill="#ffeebe" d="M 470.464844 414.554688 C 466.546875 409.429688 464.0625 401.789062 464.0625 393.257812 C 464.0625 383.113281 467.578125 374.226562 472.835938 369.335938 C 472.046875 366.632812 471.605469 363.636719 471.605469 360.480469 C 471.605469 360.21875 471.609375 359.960938 471.617188 359.703125 C 464.222656 359.089844 458.351562 349.667969 458.351562 338.132812 C 458.351562 326.199219 464.632812 316.53125 472.382812 316.53125 C 480.132812 316.53125 486.417969 326.199219 486.417969 338.132812 C 486.417969 338.394531 486.414062 338.652344 486.410156 338.910156 C 493.800781 339.523438 499.675781 348.949219 499.675781 360.480469 C 499.675781 364.976562 498.78125 369.148438 497.253906 372.605469 C 503.207031 373.960938 507.773438 381.855469 507.773438 391.394531 C 507.773438 401.289062 502.859375 409.417969 496.585938 410.308594 C 496.09375 411.285156 495.5625 412.210938 494.996094 413.074219 C 486.382812 413.355469 478.125 413.855469 470.464844 414.554688 " fill-opacity="1" fill-rule="nonzero"/></g><path fill="#ecaa7a" d="M 473.820312 418.03125 C 472.613281 417.066406 471.492188 415.894531 470.464844 414.554688 C 478.125 413.855469 486.382812 413.355469 494.996094 413.074219 C 494.109375 414.429688 493.136719 415.648438 492.082031 416.695312 C 492.117188 416.777344 492.148438 416.855469 492.179688 416.933594 C 485.804688 417.179688 479.652344 417.546875 473.820312 418.03125 " fill-opacity="1" fill-rule="nonzero"/><path fill="#715f30" d="M 453.886719 429.011719 C 451.601562 429.011719 449.609375 426.796875 448.582031 423.527344 C 448.523438 423.527344 448.46875 423.53125 448.414062 423.53125 C 447.121094 423.53125 445.90625 422.960938 444.851562 421.960938 C 446.894531 421.527344 449.105469 421.113281 451.472656 420.71875 C 454.140625 420.269531 456.960938 419.859375 459.90625 419.480469 C 459.613281 424.828125 457.03125 429.011719 453.886719 429.011719 " fill-opacity="1" fill-rule="nonzero"/><path fill="#ffeebe" d="M 442.582031 418.609375 C 441.648438 416.519531 441.097656 413.914062 441.097656 411.089844 C 441.097656 404.535156 444.078125 399.164062 447.859375 398.679688 C 448.394531 395.378906 450.171875 392.953125 452.28125 392.953125 C 454.816406 392.953125 456.871094 396.445312 456.871094 400.753906 C 456.871094 403.132812 456.246094 405.261719 455.257812 406.691406 C 455.375 407.222656 455.476562 407.765625 455.550781 408.328125 C 457.578125 409.335938 459.175781 412.152344 459.726562 415.71875 C 456.621094 416.113281 453.660156 416.542969 450.855469 417.011719 C 447.855469 417.511719 445.09375 418.046875 442.582031 418.609375 " fill-opacity="1" fill-rule="nonzero"/><path fill="#ecaa7a" d="M 444.851562 421.960938 C 443.964844 421.117188 443.195312 419.972656 442.582031 418.609375 C 445.09375 418.046875 447.855469 417.511719 450.855469 417.011719 C 453.660156 416.542969 456.621094 416.113281 459.726562 415.71875 C 459.863281 416.59375 459.933594 417.519531 459.933594 418.46875 C 459.933594 418.8125 459.925781 419.148438 459.90625 419.480469 C 456.960938 419.859375 454.140625 420.269531 451.472656 420.71875 C 449.105469 421.113281 446.894531 421.527344 444.851562 421.960938 " fill-opacity="1" fill-rule="nonzero"/><path fill="#006d00" d="M 485.601562 433.183594 C 485.941406 432.925781 486.167969 432.480469 486.042969 432.074219 C 485.96875 431.835938 485.785156 431.648438 485.613281 431.457031 C 485.074219 430.859375 484.640625 430.167969 484.339844 429.421875 C 484.695312 429.664062 485.054688 429.902344 485.414062 430.144531 C 485.3125 429.796875 485.214844 429.445312 485.113281 429.097656 C 485.132812 429.179688 485.15625 429.257812 485.175781 429.339844 C 485.222656 429.101562 485.269531 428.859375 485.3125 428.617188 C 485.855469 429.082031 486.296875 429.664062 486.597656 430.3125 C 486.597656 429.328125 486.839844 428.347656 487.300781 427.484375 C 487.378906 427.921875 487.453125 428.359375 487.527344 428.796875 C 488.21875 428.058594 488.8125 427.226562 489.292969 426.335938 C 489.300781 426.851562 489.203125 427.367188 489.011719 427.84375 C 489.355469 427.625 489.699219 427.40625 490.042969 427.183594 C 489.738281 427.746094 489.492188 428.335938 489.300781 428.945312 C 489.789062 428.863281 490.261719 428.707031 490.695312 428.480469 C 490.070312 429.878906 489.378906 431.246094 488.628906 432.582031 C 489.320312 431.886719 490.011719 431.191406 490.707031 430.492188 C 491.128906 430.066406 491.554688 429.636719 491.878906 429.125 C 492.144531 428.707031 492.335938 428.238281 492.648438 427.851562 C 492.964844 427.472656 493.457031 427.175781 493.945312 427.277344 C 493.601562 427.476562 493.328125 427.785156 493.171875 428.148438 C 493.554688 428.128906 493.929688 428.011719 494.253906 427.808594 C 493.949219 428.160156 493.683594 428.542969 493.460938 428.949219 C 494.195312 428.621094 494.957031 428.367188 495.742188 428.1875 C 495.304688 428.589844 494.867188 428.988281 494.429688 429.386719 C 494.960938 429.257812 495.519531 429.25 496.054688 429.371094 C 495.804688 429.519531 495.558594 429.667969 495.308594 429.816406 C 495.710938 429.777344 496.1875 429.761719 496.441406 430.078125 C 495.6875 430.21875 494.9375 430.359375 494.183594 430.5 C 494.605469 430.847656 495.082031 431.121094 495.59375 431.3125 C 494.730469 431.238281 493.871094 431.164062 493.007812 431.089844 C 493.539062 431.328125 494.070312 431.5625 494.601562 431.796875 C 494.167969 431.875 493.734375 431.953125 493.300781 432.035156 C 493.742188 432.117188 494.164062 432.324219 494.496094 432.625 C 492.636719 432.796875 490.753906 432.730469 488.910156 432.4375 C 490.265625 433.246094 491.910156 433.367188 493.488281 433.46875 C 493.167969 433.6875 492.78125 433.804688 492.394531 433.800781 C 493.019531 433.839844 493.632812 434.035156 494.164062 434.359375 C 493.789062 434.417969 493.417969 434.480469 493.042969 434.539062 C 493.484375 434.632812 493.871094 434.941406 494.066406 435.34375 C 493.601562 435.417969 493.113281 435.371094 492.667969 435.207031 C 492.949219 435.519531 493.230469 435.832031 493.515625 436.148438 C 493.074219 436.039062 492.632812 435.933594 492.191406 435.828125 C 492.316406 436.152344 492.390625 436.496094 492.40625 436.839844 C 491.78125 436.480469 491.15625 436.121094 490.53125 435.761719 C 490.589844 436.375 490.652344 436.996094 490.714844 437.609375 C 490.015625 437.273438 489.40625 436.757812 488.949219 436.128906 C 489.019531 436.386719 489.089844 436.644531 489.160156 436.902344 C 488.683594 436.640625 488.230469 436.332031 487.804688 435.984375 C 487.859375 436.5 487.800781 437.027344 487.636719 437.515625 C 487.03125 437.109375 486.527344 436.558594 486.175781 435.921875 C 486.3125 436.285156 486.382812 436.664062 486.382812 437.046875 C 486.382812 436.410156 485.507812 435.25 485.15625 434.730469 C 484.992188 434.492188 484.472656 434.058594 484.574219 433.757812 C 484.671875 433.472656 485.371094 433.363281 485.601562 433.183594 " fill-opacity="1" fill-rule="nonzero"/><path fill="#006d00" d="M 533.136719 431.601562 C 532.996094 431.867188 533.136719 432.148438 533.617188 432.238281 C 533.902344 432.289062 534.265625 432.269531 534.605469 432.253906 C 535.695312 432.207031 536.753906 432.25 537.722656 432.375 C 537.128906 432.464844 536.539062 432.554688 535.949219 432.644531 C 536.355469 432.722656 536.761719 432.804688 537.167969 432.886719 C 537.078125 432.863281 536.984375 432.84375 536.894531 432.824219 C 537.050781 432.9375 537.207031 433.050781 537.367188 433.160156 C 536.386719 433.261719 535.417969 433.265625 534.539062 433.175781 C 535.382812 433.539062 535.964844 434.027344 536.214844 434.582031 C 535.761719 434.457031 535.304688 434.328125 534.84375 434.203125 C 534.746094 434.824219 534.820312 435.433594 535.074219 436.007812 C 534.625 435.816406 534.28125 435.578125 534.078125 435.300781 C 533.902344 435.554688 533.722656 435.808594 533.542969 436.066406 C 533.382812 435.703125 533.140625 435.359375 532.824219 435.035156 C 532.375 435.308594 532.003906 435.605469 531.730469 435.910156 C 531.203125 435.070312 530.765625 434.214844 530.417969 433.339844 C 530.277344 433.949219 530.136719 434.554688 529.996094 435.160156 C 529.910156 435.53125 529.824219 435.90625 529.914062 436.257812 C 529.992188 436.546875 530.191406 436.816406 530.183594 437.117188 C 530.171875 437.421875 529.902344 437.777344 529.296875 437.984375 C 529.488281 437.738281 529.519531 437.480469 529.375 437.265625 C 528.984375 437.464844 528.683594 437.699219 528.507812 437.9375 C 528.53125 437.652344 528.484375 437.378906 528.375 437.113281 C 527.875 437.605469 527.277344 438.082031 526.59375 438.539062 C 526.714844 438.171875 526.839844 437.804688 526.964844 437.433594 C 526.511719 437.75 525.917969 438.03125 525.246094 438.253906 C 525.382812 438.074219 525.519531 437.894531 525.65625 437.714844 C 525.261719 437.933594 524.765625 438.175781 524.222656 438.183594 C 524.90625 437.753906 525.589844 437.324219 526.269531 436.898438 C 525.523438 436.980469 524.777344 437.117188 524.070312 437.296875 C 525.050781 436.894531 526.035156 436.492188 527.019531 436.089844 C 526.25 436.265625 525.484375 436.445312 524.714844 436.621094 C 525.109375 436.375 525.503906 436.128906 525.898438 435.882812 C 525.355469 436.074219 524.730469 436.203125 524.113281 436.261719 C 525.953125 435.265625 528.019531 434.347656 530.246094 433.535156 C 528.101562 433.910156 526.238281 434.691406 524.46875 435.441406 C 524.621094 435.199219 524.933594 434.960938 525.347656 434.769531 C 524.648438 435.066406 523.828125 435.300781 522.980469 435.445312 C 523.328125 435.238281 523.675781 435.027344 524.019531 434.820312 C 523.472656 435.003906 522.792969 435.082031 522.234375 435.03125 C 522.675781 434.769531 523.234375 434.542969 523.851562 434.378906 C 523.28125 434.402344 522.710938 434.429688 522.140625 434.453125 C 522.699219 434.273438 523.265625 434.09375 523.824219 433.910156 C 523.414062 433.851562 523.042969 433.761719 522.726562 433.640625 C 523.707031 433.460938 524.679688 433.285156 525.660156 433.105469 C 525.0625 432.90625 524.46875 432.703125 523.871094 432.503906 C 524.90625 432.285156 526.003906 432.167969 527.027344 432.179688 C 526.734375 432.117188 526.4375 432.054688 526.140625 431.992188 C 526.878906 431.851562 527.628906 431.742188 528.375 431.65625 C 527.878906 431.492188 527.488281 431.265625 527.246094 431 C 528.238281 430.851562 529.25 430.804688 530.171875 430.867188 C 529.71875 430.800781 529.3125 430.691406 528.984375 430.550781 C 529.53125 430.785156 531.464844 430.785156 532.285156 430.800781 C 532.667969 430.808594 533.589844 430.710938 533.742188 430.875 C 533.882812 431.027344 533.234375 431.417969 533.136719 431.601562 " fill-opacity="1" fill-rule="nonzero"/><path fill="#006d00" d="M 560.542969 421.496094 C 560.707031 421.886719 561.078125 422.222656 561.5 422.207031 C 561.753906 422.195312 561.984375 422.066406 562.207031 421.953125 C 562.925781 421.582031 563.703125 421.34375 564.503906 421.238281 C 564.179688 421.523438 563.855469 421.808594 563.527344 422.09375 C 563.890625 422.085938 564.253906 422.078125 564.617188 422.070312 C 564.535156 422.070312 564.449219 422.070312 564.367188 422.070312 C 564.585938 422.175781 564.808594 422.28125 565.027344 422.386719 C 564.441406 422.789062 563.765625 423.066406 563.0625 423.195312 C 564.011719 423.445312 564.898438 423.933594 565.617188 424.601562 C 565.171875 424.5625 564.730469 424.519531 564.285156 424.480469 C 564.824219 425.339844 565.476562 426.128906 566.214844 426.820312 C 565.714844 426.699219 565.238281 426.46875 564.828125 426.160156 C 564.949219 426.550781 565.078125 426.941406 565.203125 427.328125 C 564.734375 426.890625 564.226562 426.5 563.6875 426.160156 C 563.644531 426.648438 563.675781 427.144531 563.78125 427.628906 C 562.59375 426.660156 561.449219 425.644531 560.347656 424.578125 C 560.84375 425.425781 561.339844 426.273438 561.835938 427.121094 C 562.136719 427.636719 562.445312 428.160156 562.851562 428.605469 C 563.191406 428.96875 563.59375 429.273438 563.882812 429.675781 C 564.175781 430.082031 564.335938 430.632812 564.113281 431.078125 C 564.007812 430.695312 563.777344 430.347656 563.46875 430.101562 C 563.386719 430.480469 563.40625 430.875 563.515625 431.238281 C 563.253906 430.855469 562.953125 430.5 562.617188 430.179688 C 562.746094 430.972656 562.796875 431.777344 562.769531 432.578125 C 562.492188 432.054688 562.222656 431.527344 561.945312 431.003906 C 561.9375 431.550781 561.800781 432.09375 561.546875 432.578125 C 561.464844 432.300781 561.382812 432.019531 561.304688 431.742188 C 561.242188 432.144531 561.132812 432.609375 560.765625 432.769531 C 560.820312 432.007812 560.875 431.242188 560.929688 430.480469 C 560.492188 430.800781 560.105469 431.191406 559.789062 431.632812 C 560.078125 430.820312 560.375 430.007812 560.664062 429.191406 C 560.300781 429.644531 559.9375 430.097656 559.574219 430.550781 C 559.609375 430.109375 559.644531 429.671875 559.679688 429.230469 C 559.484375 429.640625 559.175781 429.992188 558.800781 430.238281 C 559.113281 428.394531 559.660156 426.59375 560.417969 424.886719 C 559.285156 425.988281 558.746094 427.546875 558.246094 429.046875 C 558.117188 428.683594 558.101562 428.277344 558.203125 427.90625 C 558.003906 428.496094 557.660156 429.039062 557.210938 429.46875 C 557.25 429.097656 557.285156 428.71875 557.324219 428.34375 C 557.121094 428.742188 556.726562 429.039062 556.285156 429.125 C 556.332031 428.65625 556.503906 428.195312 556.777344 427.804688 C 556.402344 428 556.023438 428.191406 555.652344 428.382812 C 555.867188 427.984375 556.082031 427.585938 556.296875 427.1875 C 555.953125 427.226562 555.605469 427.207031 555.265625 427.136719 C 555.773438 426.625 556.28125 426.109375 556.789062 425.597656 C 556.179688 425.5 555.566406 425.402344 554.953125 425.300781 C 555.460938 424.714844 556.113281 424.253906 556.835938 423.976562 C 556.570312 423.980469 556.304688 423.980469 556.039062 423.980469 C 556.414062 423.585938 556.828125 423.226562 557.269531 422.90625 C 556.757812 422.824219 556.265625 422.632812 555.835938 422.351562 C 556.382812 421.871094 557.042969 421.523438 557.75 421.347656 C 557.367188 421.386719 556.980469 421.355469 556.609375 421.257812 C 557.226562 421.421875 558.570312 420.875 559.164062 420.664062 C 559.4375 420.570312 559.988281 420.179688 560.25 420.355469 C 560.503906 420.519531 560.429688 421.226562 560.542969 421.496094 " fill-opacity="1" fill-rule="nonzero"/></svg>