<svg xmlns="http://www.w3.org/2000/svg" xmlns:xlink="http://www.w3.org/1999/xlink" width="1366" zoomAndPan="magnify" viewBox="0 0 1024.5 576" height="768" preserveAspectRatio="xMidYMid meet" version="1.0"><defs><clipPath id="4aafd6b92e"><path d="M 427 301 L 597.574219 301 L 597.574219 337 L 427 337 Z M 427 301 " clip-rule="nonzero"/></clipPath></defs><path fill="#f9dda8" d="M 582.984375 330.265625 L 582.984375 348.941406 C 508.355469 356.101562 436.046875 348.941406 436.046875 348.941406 L 436.046875 330.265625 L 474.339844 310.96875 L 500.222656 297.929688 C 500.222656 297.929688 506.929688 293.644531 514.269531 297.929688 L 565.480469 322.023438 Z M 582.984375 330.265625 " fill-opacity="1" fill-rule="nonzero"/><g clip-path="url(#4aafd6b92e)"><path fill="#a7b931" d="M 435.929688 306.003906 L 435.597656 306.1875 C 435.546875 306.144531 435.5 306.109375 435.453125 306.066406 C 435.542969 306.007812 435.777344 306.054688 435.929688 306.003906 Z M 502.035156 307.074219 L 502.179688 307.195312 L 502.527344 307.011719 C 502.355469 307.0625 502.117188 307.019531 502.027344 307.074219 Z M 594.597656 306.121094 C 593.960938 305.492188 594.066406 304.429688 593.402344 303.804688 C 593.351562 303.761719 593.292969 303.71875 593.234375 303.675781 L 593.175781 303.636719 L 593.046875 303.566406 L 592.964844 303.527344 L 592.828125 303.472656 L 592.734375 303.433594 L 592.597656 303.390625 C 592.507812 303.363281 592.417969 303.335938 592.328125 303.316406 L 592.273438 303.316406 L 592.070312 303.273438 L 592.023438 303.273438 C 591.261719 303.136719 590.367188 303.09375 589.613281 302.984375 L 589.292969 302.933594 L 589.195312 302.910156 C 589.070312 302.886719 588.957031 302.863281 588.84375 302.832031 C 587.464844 302.429688 585.914062 301.8125 584.363281 302.132812 C 583.089844 302.390625 581.945312 303.453125 580.65625 303.902344 C 578.773438 304.558594 576.664062 304.824219 574.757812 305.613281 C 572.046875 306.730469 569.207031 308.65625 566.335938 309.136719 C 564.859375 309.382812 562.808594 309.792969 561.359375 309.441406 C 558.542969 308.761719 556.8125 307.675781 553.6875 307.808594 C 548.972656 308.007812 544.984375 309.25 540.484375 310.683594 C 535.660156 312.222656 530.414062 311.417969 525.503906 310.820312 C 525.503906 310.796875 525.503906 310.773438 525.523438 310.746094 C 525.871094 309.566406 529.699219 311.238281 530.683594 307.6875 C 530.960938 306.683594 528.640625 305.757812 528.015625 305.148438 C 527.394531 304.535156 527.488281 303.457031 526.820312 302.832031 C 526.769531 302.785156 526.710938 302.746094 526.652344 302.703125 L 526.597656 302.667969 C 526.554688 302.640625 526.507812 302.613281 526.464844 302.589844 L 526.382812 302.550781 C 526.339844 302.53125 526.292969 302.515625 526.246094 302.496094 L 526.15625 302.460938 L 526.007812 302.414062 C 525.933594 302.386719 525.851562 302.367188 525.769531 302.351562 L 525.6875 302.328125 L 525.5 302.289062 L 525.433594 302.289062 L 525.226562 302.253906 C 524.527344 302.148438 523.738281 302.101562 523.0625 302.007812 L 522.714844 301.953125 L 522.609375 301.929688 C 522.488281 301.90625 522.375 301.882812 522.257812 301.851562 C 520.882812 301.449219 519.328125 300.832031 517.777344 301.152344 C 516.503906 301.410156 515.359375 302.472656 514.070312 302.921875 C 512.1875 303.578125 510.078125 303.84375 508.171875 304.628906 C 506.265625 305.414062 504.324219 306.589844 502.324219 307.390625 L 502.164062 307.261719 L 502.109375 307.292969 C 502.089844 307.367188 502.066406 307.4375 502.042969 307.507812 C 501.300781 307.800781 500.539062 308.019531 499.753906 308.15625 C 498.277344 308.40625 496.226562 308.8125 494.777344 308.464844 C 491.980469 307.765625 490.230469 306.699219 487.105469 306.832031 C 482.394531 307.03125 478.402344 308.273438 473.902344 309.707031 C 469.050781 311.253906 463.761719 310.433594 458.839844 309.832031 C 453.285156 309.160156 448.53125 307.390625 442.851562 307.6875 C 440.195312 307.820312 437.644531 308.066406 435.59375 306.257812 L 435.539062 306.289062 C 435.515625 306.386719 435.484375 306.480469 435.449219 306.570312 C 435.449219 306.601562 435.425781 306.632812 435.414062 306.664062 C 435.40625 306.695312 435.371094 306.777344 435.339844 306.832031 L 435.289062 306.925781 C 435.265625 306.96875 435.238281 307.015625 435.210938 307.058594 L 435.144531 307.148438 L 435.0625 307.261719 L 434.984375 307.34375 L 434.890625 307.441406 L 434.804688 307.515625 L 434.703125 307.597656 L 434.609375 307.660156 L 434.5 307.734375 L 434.398438 307.789062 C 434.359375 307.8125 434.320312 307.832031 434.277344 307.851562 L 434.171875 307.898438 L 434.046875 307.953125 L 433.9375 307.992188 L 433.800781 308.035156 L 433.679688 307.984375 L 433.542969 308.019531 L 433.421875 308.050781 L 433.277344 308.078125 L 433.152344 308.101562 L 433.003906 308.125 L 432.878906 308.144531 L 432.730469 308.144531 L 432.484375 308.171875 C 431.316406 308.28125 430.054688 308.246094 429.132812 308.566406 L 429.105469 308.566406 L 428.929688 308.632812 L 428.886719 308.683594 C 428.839844 308.707031 428.789062 308.730469 428.742188 308.757812 L 428.679688 308.796875 L 428.554688 308.871094 L 428.484375 308.929688 L 428.386719 309.003906 L 428.300781 309.09375 L 428.238281 309.15625 C 428.191406 309.210938 428.148438 309.273438 428.109375 309.335938 C 426.679688 311.566406 429.757812 310.992188 430.621094 311.609375 C 432.5 312.960938 430.839844 313.644531 430.222656 314.773438 C 430.179688 314.855469 430.140625 314.9375 430.101562 315.015625 C 429.636719 315.960938 429.59375 316.925781 429.980469 317.90625 C 430 317.964844 430.023438 318.011719 430.050781 318.066406 L 430.132812 318.238281 C 430.179688 318.324219 430.226562 318.402344 430.28125 318.484375 C 430.332031 318.5625 430.332031 318.566406 430.359375 318.609375 C 430.429688 318.707031 430.5 318.796875 430.582031 318.886719 C 430.609375 318.921875 430.640625 318.953125 430.667969 318.984375 C 430.695312 319.015625 430.828125 319.140625 430.910156 319.21875 L 430.988281 319.28125 C 431.082031 319.359375 431.179688 319.429688 431.285156 319.496094 L 431.375 319.554688 C 431.488281 319.625 431.605469 319.691406 431.726562 319.746094 L 431.8125 319.785156 C 431.941406 319.847656 432.078125 319.894531 432.214844 319.9375 L 432.234375 319.9375 C 432.382812 319.980469 432.53125 320.011719 432.679688 320.039062 L 432.769531 320.054688 C 432.921875 320.078125 433.078125 320.089844 433.234375 320.097656 L 433.332031 320.097656 C 433.5 320.109375 433.671875 320.109375 433.84375 320.097656 C 435.285156 319.953125 436.660156 318.730469 437.304688 320.65625 C 437.761719 322.027344 435.460938 323.898438 436.859375 325.390625 C 438.203125 326.820312 440.335938 324.871094 441.910156 325.523438 L 442.128906 325.625 C 442.195312 325.664062 442.261719 325.703125 442.320312 325.742188 C 442.769531 326.058594 443.117188 326.457031 443.367188 326.945312 C 443.535156 327.234375 443.6875 327.539062 443.851562 327.84375 C 443.914062 327.957031 443.976562 328.070312 444.042969 328.191406 L 444.066406 328.222656 C 444.140625 328.355469 444.226562 328.484375 444.316406 328.609375 C 445.167969 329.765625 446.34375 331.019531 447.925781 330.746094 C 449.195312 330.523438 450.421875 329.023438 451.863281 328.816406 C 452.035156 328.792969 452.214844 328.777344 452.359375 328.769531 L 452.472656 328.769531 C 452.628906 328.769531 452.773438 328.769531 452.914062 328.769531 L 452.964844 328.769531 C 453.09375 328.769531 453.210938 328.785156 453.316406 328.804688 L 453.417969 328.804688 C 453.539062 328.824219 453.660156 328.847656 453.765625 328.878906 L 453.835938 328.902344 C 453.933594 328.929688 454.027344 328.960938 454.117188 328.996094 L 454.195312 329.027344 C 454.300781 329.070312 454.398438 329.117188 454.492188 329.171875 L 454.558594 329.210938 C 454.636719 329.257812 454.710938 329.300781 454.789062 329.355469 L 454.851562 329.402344 C 454.9375 329.460938 455.015625 329.527344 455.097656 329.59375 L 455.164062 329.65625 C 455.230469 329.710938 455.292969 329.773438 455.355469 329.835938 L 455.40625 329.886719 C 455.480469 329.960938 455.550781 330.039062 455.621094 330.121094 L 455.691406 330.203125 L 455.851562 330.402344 L 455.917969 330.488281 L 456.089844 330.714844 L 456.179688 330.839844 L 456.277344 330.984375 C 456.53125 331.332031 456.777344 331.707031 457.050781 332.074219 C 457.46875 332.640625 457.957031 333.140625 458.515625 333.566406 C 458.589844 333.625 458.660156 333.675781 458.734375 333.722656 C 458.808594 333.777344 458.882812 333.816406 458.949219 333.859375 L 458.988281 333.882812 L 459.230469 334.003906 L 459.421875 334.078125 L 459.457031 334.078125 C 459.519531 334.09375 459.582031 334.109375 459.644531 334.121094 L 459.671875 334.121094 C 459.730469 334.132812 459.789062 334.140625 459.851562 334.140625 L 459.878906 334.140625 C 459.9375 334.144531 459.996094 334.144531 460.054688 334.140625 L 460.078125 334.140625 L 460.253906 334.113281 C 460.757812 333.976562 461.242188 333.792969 461.710938 333.570312 C 461.785156 333.539062 461.859375 333.511719 461.941406 333.484375 L 462.011719 333.480469 L 462.300781 333.382812 C 464.179688 332.804688 464.917969 333.609375 466.578125 334.289062 C 468.074219 334.90625 469.8125 335.394531 471.199219 334.746094 L 471.503906 334.597656 L 471.597656 334.542969 L 471.78125 334.445312 L 471.882812 334.390625 L 472.035156 334.300781 L 472.128906 334.242188 L 472.277344 334.152344 C 472.289062 334.144531 472.300781 334.136719 472.316406 334.128906 C 473.132812 333.527344 474.046875 333.195312 475.058594 333.128906 C 475.390625 333.101562 475.726562 333.105469 476.058594 333.148438 C 477.691406 333.332031 479.25 334.242188 480.820312 334.746094 L 481.089844 334.832031 L 481.109375 334.832031 L 481.382812 334.902344 C 481.660156 334.972656 481.941406 335.023438 482.226562 335.054688 L 482.296875 335.054688 L 482.511719 335.070312 L 483.167969 335.070312 L 483.339844 335.050781 L 483.449219 335.035156 L 483.628906 335 L 483.730469 334.972656 L 483.921875 334.921875 L 484.011719 334.898438 L 484.292969 334.792969 C 485.371094 334.359375 486.191406 332.949219 487.144531 332.28125 C 487.351562 332.140625 487.5625 332.007812 487.78125 331.886719 L 487.945312 331.800781 C 488.125 331.703125 488.3125 331.609375 488.507812 331.523438 L 488.632812 331.46875 C 489.683594 331.023438 490.777344 330.769531 491.917969 330.714844 C 492.773438 330.699219 493.589844 330.875 494.367188 331.242188 C 494.863281 331.453125 495.339844 331.695312 495.824219 331.90625 L 495.882812 331.933594 L 496.058594 332.007812 L 496.179688 332.058594 L 496.355469 332.128906 L 496.585938 332.207031 L 496.707031 332.246094 L 496.890625 332.300781 L 497.007812 332.332031 L 497.289062 332.398438 L 497.371094 332.398438 C 497.445312 332.410156 497.523438 332.421875 497.601562 332.429688 L 497.707031 332.429688 C 497.792969 332.429688 497.882812 332.429688 497.972656 332.429688 L 498.019531 332.429688 C 498.125 332.429688 498.234375 332.429688 498.34375 332.410156 L 498.4375 332.410156 L 498.699219 332.367188 L 498.78125 332.367188 C 498.894531 332.339844 499.011719 332.3125 499.132812 332.273438 L 499.207031 332.25 C 499.304688 332.21875 499.402344 332.179688 499.503906 332.136719 L 499.601562 332.097656 C 499.726562 332.039062 499.851562 331.980469 499.980469 331.910156 C 500.992188 331.363281 501.726562 329.316406 504.15625 328.46875 C 505.605469 327.953125 507.371094 328.816406 508.808594 328.878906 C 509.421875 328.90625 509.964844 328.925781 510.476562 328.90625 C 510.523438 328.996094 510.574219 329.082031 510.625 329.171875 L 510.625 329.203125 C 510.707031 329.332031 510.785156 329.460938 510.882812 329.585938 C 511.730469 330.746094 512.910156 332 514.488281 331.722656 C 515.761719 331.503906 516.988281 330 518.429688 329.796875 C 518.601562 329.769531 518.761719 329.757812 518.921875 329.746094 L 519.039062 329.746094 C 519.191406 329.746094 519.339844 329.746094 519.480469 329.746094 L 519.53125 329.746094 C 519.648438 329.75 519.765625 329.761719 519.882812 329.78125 L 519.980469 329.78125 C 520.105469 329.800781 520.222656 329.828125 520.332031 329.859375 L 520.398438 329.878906 C 520.496094 329.90625 520.585938 329.9375 520.679688 329.972656 L 520.761719 330.003906 C 520.863281 330.046875 520.957031 330.09375 521.050781 330.148438 L 521.125 330.191406 C 521.203125 330.234375 521.277344 330.28125 521.351562 330.332031 L 521.417969 330.378906 C 521.5 330.4375 521.582031 330.503906 521.660156 330.570312 L 521.730469 330.632812 C 521.792969 330.6875 521.855469 330.75 521.917969 330.8125 L 521.972656 330.867188 C 522.042969 330.9375 522.113281 331.015625 522.183594 331.097656 L 522.253906 331.179688 L 522.417969 331.378906 C 522.4375 331.410156 522.460938 331.4375 522.484375 331.464844 L 522.65625 331.695312 L 522.742188 331.816406 C 522.78125 331.867188 522.816406 331.917969 522.855469 331.972656 C 523.09375 332.320312 523.335938 332.667969 523.601562 333.019531 L 523.625 333.058594 C 524.03125 333.625 524.503906 334.121094 525.050781 334.554688 L 525.265625 334.707031 C 525.34375 334.761719 525.421875 334.804688 525.496094 334.847656 L 525.523438 334.867188 C 525.597656 334.90625 525.667969 334.941406 525.738281 334.972656 L 525.765625 334.972656 C 525.832031 335.003906 525.898438 335.027344 525.96875 335.050781 L 525.988281 335.050781 C 526.050781 335.070312 526.117188 335.089844 526.183594 335.101562 L 526.203125 335.101562 C 526.265625 335.113281 526.328125 335.117188 526.394531 335.121094 L 526.601562 335.121094 C 527.121094 335.082031 527.605469 334.808594 528.253906 334.546875 L 528.476562 334.46875 L 528.53125 334.445312 L 528.820312 334.347656 C 530.699219 333.773438 531.4375 334.574219 533.097656 335.257812 C 534.59375 335.871094 536.332031 336.359375 537.71875 335.710938 C 537.824219 335.664062 537.921875 335.617188 538.015625 335.566406 L 538.140625 335.5 L 538.292969 335.417969 L 538.40625 335.355469 L 538.5625 335.261719 L 538.625 335.226562 C 539.503906 334.6875 540.023438 334.234375 541.585938 334.09375 C 541.917969 334.066406 542.25 334.070312 542.585938 334.113281 C 544.113281 334.285156 545.578125 335.09375 547.050781 335.609375 L 547.085938 335.609375 L 547.320312 335.691406 L 547.371094 335.691406 L 547.59375 335.757812 L 547.65625 335.757812 L 547.875 335.816406 L 547.933594 335.816406 L 548.199219 335.875 L 548.480469 335.925781 L 548.515625 335.925781 L 548.75 335.953125 L 549.734375 335.953125 L 549.898438 335.933594 L 550.011719 335.917969 L 550.179688 335.882812 L 550.289062 335.859375 C 550.351562 335.859375 550.414062 335.824219 550.480469 335.804688 L 550.574219 335.777344 C 550.664062 335.75 550.757812 335.714844 550.851562 335.675781 C 551.929688 335.242188 552.753906 333.832031 553.707031 333.164062 C 553.910156 333.023438 554.125 332.894531 554.347656 332.765625 L 554.5 332.683594 C 554.6875 332.585938 554.875 332.492188 555.070312 332.402344 L 555.195312 332.351562 C 556.242188 331.90625 557.339844 331.652344 558.476562 331.597656 C 559.335938 331.582031 560.152344 331.757812 560.925781 332.121094 C 561.414062 332.332031 561.886719 332.566406 562.363281 332.777344 L 562.457031 332.820312 L 562.617188 332.886719 L 562.769531 332.953125 L 562.894531 333 L 563.160156 333.09375 L 563.265625 333.128906 L 563.46875 333.1875 L 563.570312 333.214844 C 563.664062 333.238281 563.761719 333.261719 563.859375 333.28125 L 563.925781 333.28125 C 564.007812 333.28125 564.089844 333.304688 564.171875 333.3125 L 564.269531 333.3125 C 564.359375 333.3125 564.457031 333.3125 564.546875 333.3125 L 564.589844 333.3125 C 564.691406 333.3125 564.800781 333.3125 564.910156 333.292969 L 565 333.292969 C 565.089844 333.292969 565.179688 333.269531 565.265625 333.253906 L 565.351562 333.234375 C 565.46875 333.210938 565.585938 333.179688 565.699219 333.144531 L 565.773438 333.121094 C 565.871094 333.089844 565.96875 333.050781 566.066406 333.007812 L 566.171875 332.964844 C 566.296875 332.910156 566.417969 332.851562 566.546875 332.78125 C 567.5625 332.234375 568.296875 330.1875 570.722656 329.335938 C 572.175781 328.824219 573.9375 329.6875 575.375 329.75 C 577.433594 329.847656 578.671875 329.800781 580.566406 328.839844 C 580.664062 328.792969 580.757812 328.738281 580.847656 328.675781 L 580.910156 328.636719 C 580.988281 328.578125 581.066406 328.515625 581.136719 328.445312 C 581.203125 328.382812 581.265625 328.3125 581.324219 328.238281 C 581.324219 328.238281 581.324219 328.238281 581.34375 328.21875 C 581.984375 327.40625 581.921875 326.328125 582.714844 325.625 L 582.769531 325.578125 L 582.851562 325.511719 L 582.914062 325.46875 C 582.957031 325.4375 583.007812 325.410156 583.054688 325.382812 L 583.136719 325.335938 L 583.234375 325.285156 L 583.320312 325.25 C 583.382812 325.21875 583.441406 325.195312 583.503906 325.175781 L 583.59375 325.144531 L 583.734375 325.101562 L 583.84375 325.074219 L 584.015625 325.035156 L 584.121094 325.015625 L 584.367188 324.976562 L 584.484375 324.976562 L 584.703125 324.953125 L 585.261719 324.953125 C 585.359375 324.953125 585.460938 324.953125 585.5625 324.953125 L 586.117188 324.953125 C 587.847656 325.03125 586.054688 320.964844 587.867188 319.902344 C 589.417969 318.988281 590.75 319.949219 592.1875 318.503906 C 592.253906 318.433594 592.316406 318.367188 592.375 318.296875 C 592.402344 318.265625 592.429688 318.234375 592.453125 318.199219 L 592.535156 318.09375 C 592.558594 318.0625 592.578125 318.03125 592.597656 318 C 592.617188 317.96875 592.648438 317.921875 592.667969 317.882812 C 592.683594 317.859375 592.699219 317.832031 592.710938 317.804688 C 592.734375 317.761719 592.753906 317.714844 592.777344 317.671875 L 592.800781 317.605469 C 592.820312 317.558594 592.839844 317.507812 592.855469 317.460938 C 592.859375 317.445312 592.859375 317.429688 592.855469 317.410156 C 592.875 317.355469 592.886719 317.300781 592.902344 317.242188 C 592.917969 317.1875 592.902344 317.222656 592.902344 317.210938 C 592.914062 317.152344 592.925781 317.09375 592.933594 317.03125 L 592.933594 317.007812 C 592.9375 316.945312 592.9375 316.882812 592.933594 316.816406 C 592.960938 315.722656 592.277344 314.601562 592.015625 313.390625 C 591.953125 313.105469 591.921875 312.820312 591.917969 312.53125 L 591.917969 312.503906 C 591.917969 312.367188 591.929688 312.226562 591.949219 312.085938 C 591.949219 312.085938 591.949219 312.066406 591.949219 312.054688 C 591.972656 311.90625 592.003906 311.761719 592.046875 311.621094 C 592.398438 310.445312 596.226562 312.113281 597.207031 308.566406 C 597.535156 307.65625 595.214844 306.734375 594.589844 306.121094 Z M 594.597656 306.121094 " fill-opacity="1" fill-rule="nonzero"/></g><path fill="#f8a90d" d="M 518.675781 331.359375 L 509.6875 322.28125 L 461.367188 331.359375 L 436.914062 306.648438 L 436.671875 304.730469 L 497.484375 293.320312 L 506.472656 302.398438 L 554.792969 293.320312 L 566.335938 304.988281 L 579.238281 318.027344 L 579.476562 319.945312 Z M 518.675781 331.359375 " fill-opacity="1" fill-rule="nonzero"/><path fill="#f9dda8" d="M 585.4375 312.242188 C 584.089844 314.316406 580.210938 315.003906 578.09375 316.085938 C 574.890625 317.714844 573.9375 317.414062 570.527344 316.714844 C 564.960938 315.589844 562.109375 321.605469 556.027344 319.097656 C 553.476562 318.050781 551.761719 316.144531 549.089844 315.363281 C 546.191406 314.511719 543.679688 314.464844 540.652344 314.640625 C 534.269531 315.023438 531.25 320.578125 525.132812 320.453125 C 522.589844 320.402344 520.550781 319.074219 518.203125 318.851562 C 515.5 318.59375 513.101562 319.828125 510.628906 320.441406 C 507.617188 321.183594 504.566406 321.398438 501.476562 321.089844 C 498.789062 320.800781 498.035156 319.535156 495.738281 318.296875 C 492.703125 316.664062 481.277344 315.8125 479.359375 319.433594 C 478.550781 319.589844 477.753906 319.796875 476.972656 320.046875 C 470.84375 322.164062 466.761719 320.574219 461.761719 317.515625 C 456.035156 314.023438 453.015625 318.214844 447.574219 319.167969 C 440.898438 320.335938 440.992188 314.535156 436.539062 312.230469 C 434.164062 311 432.386719 310.53125 432.128906 307.375 C 431.496094 299.691406 440.871094 300.59375 445.667969 300.277344 C 448.441406 300.097656 450.859375 301.078125 453.566406 301.328125 C 459.289062 301.835938 465.664062 300.925781 471.21875 302.285156 C 475.738281 303.390625 476.148438 307.613281 480.429688 303.175781 C 483.113281 300.382812 483.140625 300.703125 487.074219 301.25 C 488.855469 301.496094 490.300781 301.746094 492.035156 301.40625 C 494.191406 300.988281 495.769531 300.125 498.035156 300.050781 C 500.953125 299.957031 503.328125 301.308594 505.921875 301.597656 C 508.71875 301.914062 511.578125 301.367188 514.445312 301.65625 C 520.289062 302.242188 525.472656 299.765625 530.820312 301.328125 C 538.242188 303.488281 543.429688 299.667969 550.613281 298.769531 C 554.070312 298.339844 556.621094 299.511719 559.828125 300.140625 C 562.523438 300.667969 566.191406 301.941406 568.09375 300.042969 C 572.933594 295.226562 579.441406 297.03125 583.078125 298.203125 C 585.875 299.101562 586.886719 302.324219 587.460938 304.042969 C 588.144531 306.148438 586.878906 310.042969 585.4375 312.242188 Z M 585.4375 312.242188 " fill-opacity="1" fill-rule="nonzero"/><path fill="#ef4e56" d="M 583.382812 302.832031 C 583.296875 304.519531 582.511719 306.460938 580.351562 307.957031 C 578.5 309.246094 574.757812 310.84375 571.902344 311.800781 C 569.007812 312.78125 564.679688 313.332031 560.855469 313.289062 C 552.605469 313.195312 542.285156 312.324219 536.820312 309.691406 C 535.722656 309.175781 534.703125 308.542969 533.753906 307.789062 C 533.675781 307.847656 533.601562 307.90625 533.523438 307.957031 C 531.667969 309.246094 527.90625 310.84375 525.070312 311.800781 C 522.179688 312.78125 517.847656 313.332031 514.027344 313.289062 C 505.773438 313.195312 495.453125 312.324219 489.988281 309.691406 C 488.980469 309.210938 488.03125 308.636719 487.140625 307.960938 C 485.285156 309.25 481.546875 310.84375 478.695312 311.804688 C 475.804688 312.785156 471.472656 313.335938 467.648438 313.289062 C 459.398438 313.199219 449.078125 312.328125 443.613281 309.695312 C 440.871094 308.371094 438.992188 306.714844 438.261719 304.949219 C 437.214844 302.417969 437.839844 298.859375 437.839844 298.859375 C 437.882812 298.53125 437.964844 298.214844 438.082031 297.902344 C 438.605469 296.539062 440.355469 295.015625 441.699219 293.742188 C 443.988281 291.574219 448.859375 290.628906 454.292969 290.0625 C 457.84375 289.683594 460.542969 289.171875 464.316406 289.261719 C 467.8125 289.34375 471.273438 289.609375 474.71875 289.878906 C 480.015625 290.265625 484.511719 292.339844 487.589844 294.210938 L 488.082031 293.742188 C 490.371094 291.574219 495.242188 290.628906 500.675781 290.0625 C 504.226562 289.683594 506.925781 289.171875 510.699219 289.261719 C 514.195312 289.34375 517.660156 289.609375 521.101562 289.878906 C 526.554688 290.277344 531.152344 292.464844 534.25 294.375 L 534.921875 293.742188 C 537.203125 291.574219 542.082031 290.628906 547.511719 290.0625 C 551.0625 289.683594 553.761719 289.171875 557.535156 289.261719 C 561.035156 289.34375 564.492188 289.609375 567.9375 289.878906 C 574.144531 290.332031 579.242188 293.105469 582.28125 295.144531 C 582.804688 295.496094 583.148438 295.980469 583.3125 296.589844 C 583.382812 296.855469 583.429688 297.125 583.449219 297.398438 C 583.613281 299.210938 583.589844 301.023438 583.382812 302.832031 Z M 583.382812 302.832031 " fill-opacity="1" fill-rule="nonzero"/><path fill="#f9dda8" d="M 532.476562 290.375 C 521.089844 290.375 511.339844 292.414062 507.246094 295.316406 C 503.640625 292.136719 493.410156 289.84375 481.34375 289.84375 C 466.269531 289.84375 454.0625 293.421875 454.0625 297.835938 L 454.0625 300.570312 C 454.0625 304.984375 466.28125 308.5625 481.34375 308.5625 C 492.726562 308.5625 502.480469 306.519531 506.570312 303.621094 C 510.179688 306.800781 520.410156 309.09375 532.476562 309.09375 C 547.550781 309.09375 559.757812 305.515625 559.757812 301.097656 L 559.757812 298.363281 C 559.773438 293.953125 547.550781 290.375 532.476562 290.375 Z M 481.34375 292.46875 C 493.375 292.46875 503.128906 294.324219 503.128906 297.847656 C 503.128906 301.371094 493.375 302.941406 481.34375 302.941406 C 469.3125 302.941406 459.5625 301.351562 459.5625 297.835938 C 459.5625 294.316406 469.308594 292.457031 481.34375 292.457031 Z M 532.476562 293 C 544.511719 293 554.265625 294.855469 554.265625 298.378906 C 554.265625 301.902344 544.511719 303.445312 532.476562 303.445312 C 520.441406 303.445312 510.683594 301.875 510.683594 298.351562 C 510.683594 294.828125 520.445312 292.988281 532.476562 292.988281 Z M 532.476562 293 " fill-opacity="1" fill-rule="nonzero"/><path fill="#a7b931" d="M 436.945312 273.023438 L 436.613281 273.207031 C 436.566406 273.164062 436.519531 273.128906 436.472656 273.085938 C 436.558594 273.027344 436.796875 273.0625 436.945312 273.023438 Z M 592.304688 275.160156 C 591.667969 274.535156 591.777344 273.472656 591.109375 272.847656 C 591.054688 272.800781 591 272.757812 590.941406 272.71875 L 590.882812 272.679688 L 590.746094 272.601562 L 590.671875 272.566406 L 590.53125 272.507812 L 590.441406 272.472656 L 590.285156 272.425781 C 590.210938 272.402344 590.136719 272.382812 590.058594 272.363281 L 589.976562 272.339844 L 589.769531 272.300781 L 589.738281 272.300781 C 588.980469 272.160156 588.097656 272.117188 587.34375 272.011719 L 586.996094 271.953125 L 586.898438 271.953125 C 586.777344 271.929688 586.660156 271.902344 586.546875 271.871094 C 585.167969 271.46875 583.617188 270.851562 582.066406 271.171875 C 580.792969 271.425781 579.644531 272.488281 578.359375 272.9375 C 576.476562 273.597656 574.363281 273.859375 572.457031 274.648438 C 569.746094 275.765625 566.910156 277.695312 564.039062 278.171875 C 562.5625 278.421875 560.511719 278.828125 559.0625 278.476562 C 556.265625 277.777344 554.515625 276.730469 551.386719 276.847656 C 546.675781 277.046875 542.6875 278.289062 538.1875 279.71875 C 534.492188 280.902344 530.550781 280.703125 526.699219 280.277344 C 526.613281 280.03125 526.546875 279.78125 526.492188 279.523438 C 526.460938 279.382812 526.4375 279.238281 526.421875 279.09375 C 526.402344 278.953125 526.394531 278.808594 526.398438 278.664062 L 526.398438 278.644531 C 526.398438 278.503906 526.40625 278.363281 526.429688 278.222656 C 526.429688 278.222656 526.429688 278.222656 526.429688 278.199219 C 526.449219 278.046875 526.484375 277.902344 526.527344 277.757812 C 526.875 276.582031 530.703125 278.253906 531.6875 274.703125 C 531.964844 273.695312 529.644531 272.769531 529.019531 272.160156 C 528.398438 271.546875 528.492188 270.46875 527.824219 269.84375 C 527.769531 269.796875 527.714844 269.753906 527.65625 269.714844 L 527.601562 269.679688 C 527.554688 269.652344 527.511719 269.625 527.464844 269.601562 L 527.390625 269.566406 C 527.34375 269.542969 527.292969 269.523438 527.242188 269.503906 L 527.164062 269.472656 L 526.984375 269.414062 L 526.835938 269.375 L 526.683594 269.335938 L 526.535156 269.304688 L 526.421875 269.285156 L 526.253906 269.257812 L 526.21875 269.257812 C 525.519531 269.148438 524.753906 269.105469 524.085938 269.011719 L 523.710938 268.953125 L 523.621094 268.933594 C 523.496094 268.910156 523.382812 268.882812 523.269531 268.851562 C 521.890625 268.449219 520.339844 267.832031 518.789062 268.152344 C 517.515625 268.414062 516.371094 269.472656 515.082031 269.925781 C 513.199219 270.582031 511.085938 270.847656 509.179688 271.632812 C 506.472656 272.75 503.632812 274.675781 500.765625 275.160156 C 499.285156 275.402344 497.234375 275.8125 495.785156 275.464844 C 492.988281 274.78125 491.238281 273.695312 488.109375 273.832031 C 483.398438 274.027344 479.410156 275.269531 474.910156 276.707031 C 470.054688 278.253906 464.769531 277.433594 459.847656 276.832031 C 454.292969 276.15625 449.539062 274.386719 443.859375 274.683594 C 441.203125 274.816406 438.652344 275.066406 436.601562 273.257812 L 436.542969 273.289062 C 436.523438 273.382812 436.492188 273.476562 436.460938 273.570312 C 436.460938 273.601562 436.4375 273.628906 436.421875 273.65625 C 436.402344 273.714844 436.378906 273.773438 436.347656 273.828125 C 436.347656 273.859375 436.316406 273.886719 436.300781 273.917969 C 436.28125 273.949219 436.246094 274.015625 436.21875 274.054688 L 436.15625 274.144531 C 436.128906 274.183594 436.097656 274.222656 436.066406 274.261719 L 435.996094 274.339844 L 435.898438 274.441406 L 435.816406 274.511719 L 435.707031 274.597656 L 435.621094 274.660156 L 435.503906 274.734375 L 435.40625 274.785156 L 435.28125 274.851562 L 435.183594 274.898438 L 435.050781 274.949219 L 434.941406 274.988281 L 434.804688 275.035156 L 434.695312 275.070312 L 434.550781 275.101562 L 434.4375 275.132812 L 434.28125 275.164062 L 434.167969 275.183594 L 434.03125 275.160156 L 433.921875 275.160156 L 433.726562 275.183594 L 433.640625 275.183594 C 432.53125 275.300781 431.320312 275.265625 430.390625 275.53125 L 430.183594 275.613281 L 430.132812 275.613281 C 430.082031 275.632812 430.023438 275.652344 429.976562 275.675781 L 429.90625 275.707031 L 429.777344 275.769531 L 429.695312 275.820312 C 429.660156 275.839844 429.628906 275.863281 429.59375 275.886719 L 429.503906 275.957031 C 429.476562 275.972656 429.449219 275.996094 429.421875 276.019531 C 429.390625 276.050781 429.355469 276.085938 429.324219 276.121094 C 429.324219 276.121094 429.289062 276.152344 429.273438 276.171875 C 429.226562 276.230469 429.179688 276.289062 429.140625 276.351562 C 427.710938 278.582031 430.792969 278.007812 431.652344 278.628906 C 433.535156 279.976562 431.871094 280.660156 431.257812 281.769531 C 431.210938 281.855469 431.171875 281.933594 431.132812 282.015625 C 430.660156 282.972656 430.617188 283.945312 431.011719 284.9375 L 431.011719 284.921875 C 431.035156 284.980469 431.058594 285.035156 431.089844 285.09375 L 431.160156 285.238281 C 431.207031 285.328125 431.261719 285.414062 431.316406 285.503906 L 431.390625 285.617188 C 431.460938 285.714844 431.535156 285.8125 431.613281 285.902344 L 431.695312 285.992188 C 431.777344 286.074219 431.859375 286.15625 431.949219 286.234375 L 432.011719 286.289062 C 432.109375 286.371094 432.210938 286.445312 432.320312 286.511719 L 432.40625 286.570312 C 432.519531 286.640625 432.636719 286.703125 432.757812 286.761719 L 432.84375 286.800781 C 432.976562 286.859375 433.113281 286.910156 433.25 286.953125 C 433.398438 286.996094 433.546875 287.03125 433.703125 287.054688 L 433.789062 287.070312 C 433.941406 287.09375 434.097656 287.105469 434.257812 287.113281 L 434.347656 287.113281 C 434.519531 287.125 434.691406 287.125 434.863281 287.113281 C 436.304688 286.96875 437.679688 285.746094 438.320312 287.671875 C 438.78125 289.042969 436.480469 290.917969 437.878906 292.40625 C 439.21875 293.835938 441.355469 291.886719 442.929688 292.539062 C 443.003906 292.570312 443.078125 292.605469 443.148438 292.644531 C 443.214844 292.679688 443.277344 292.71875 443.339844 292.761719 C 443.789062 293.074219 444.140625 293.476562 444.390625 293.964844 C 444.558594 294.257812 444.714844 294.570312 444.878906 294.875 L 445.0625 295.199219 L 445.089844 295.238281 C 445.167969 295.367188 445.25 295.496094 445.339844 295.617188 C 446.1875 296.78125 447.367188 298.03125 448.949219 297.753906 C 450.21875 297.535156 451.445312 296.03125 452.886719 295.828125 C 453.058594 295.800781 453.234375 295.789062 453.378906 295.777344 L 453.496094 295.777344 C 453.648438 295.777344 453.796875 295.777344 453.933594 295.777344 L 453.96875 295.777344 C 454.09375 295.777344 454.214844 295.777344 454.316406 295.8125 L 454.410156 295.8125 C 454.527344 295.832031 454.644531 295.859375 454.761719 295.890625 L 454.820312 295.90625 C 454.921875 295.9375 455.015625 295.96875 455.105469 296.007812 L 455.183594 296.035156 C 455.289062 296.082031 455.386719 296.125 455.480469 296.179688 L 455.546875 296.21875 C 455.628906 296.261719 455.707031 296.316406 455.777344 296.363281 L 455.839844 296.40625 C 455.925781 296.46875 456.007812 296.535156 456.089844 296.605469 L 456.152344 296.660156 L 456.347656 296.847656 L 456.398438 296.894531 C 456.472656 296.972656 456.542969 297.046875 456.609375 297.128906 L 456.679688 297.210938 L 456.84375 297.410156 L 456.910156 297.496094 L 457.078125 297.722656 L 457.175781 297.855469 L 457.253906 297.96875 C 457.511719 298.335938 457.773438 298.726562 458.050781 299.101562 C 458.453125 299.667969 458.929688 300.167969 459.472656 300.601562 C 459.550781 300.660156 459.621094 300.707031 459.691406 300.757812 C 459.769531 300.808594 459.847656 300.859375 459.925781 300.902344 L 459.949219 300.902344 C 460.023438 300.945312 460.09375 300.980469 460.167969 301.011719 L 460.1875 301.011719 C 460.257812 301.042969 460.324219 301.070312 460.394531 301.09375 C 460.464844 301.109375 460.527344 301.128906 460.59375 301.136719 C 460.660156 301.152344 460.722656 301.160156 460.789062 301.164062 C 460.851562 301.167969 460.914062 301.167969 460.980469 301.164062 C 461.5625 301.117188 462.101562 300.777344 462.894531 300.492188 L 462.925781 300.492188 L 463.214844 300.394531 C 465.09375 299.816406 465.832031 300.621094 467.492188 301.300781 C 468.984375 301.921875 470.722656 302.40625 472.117188 301.757812 L 472.402344 301.617188 C 472.46875 301.585938 472.527344 301.550781 472.585938 301.519531 L 472.664062 301.476562 L 472.855469 301.367188 L 472.902344 301.339844 L 473.09375 301.226562 L 473.214844 301.148438 C 474.03125 300.542969 474.949219 300.207031 475.964844 300.144531 C 476.296875 300.109375 476.632812 300.109375 476.96875 300.144531 C 478.597656 300.335938 480.152344 301.234375 481.722656 301.742188 L 481.738281 301.742188 L 481.996094 301.820312 L 482.023438 301.820312 C 482.113281 301.847656 482.199219 301.867188 482.292969 301.890625 C 482.566406 301.960938 482.847656 302.011719 483.128906 302.042969 L 483.78125 302.042969 C 483.839844 302.046875 483.894531 302.046875 483.953125 302.042969 L 484.0625 302.042969 L 484.230469 302.023438 L 484.339844 302.003906 L 484.515625 301.96875 L 484.625 301.945312 C 484.6875 301.945312 484.75 301.910156 484.8125 301.890625 L 484.902344 301.867188 L 485.183594 301.761719 C 486.261719 301.328125 487.085938 299.917969 488.042969 299.253906 C 488.289062 299.121094 488.542969 299.007812 488.804688 298.90625 C 488.851562 298.875 488.90625 298.851562 488.957031 298.824219 C 489.144531 298.722656 489.335938 298.628906 489.527344 298.539062 L 489.648438 298.488281 C 490.148438 298.273438 490.664062 298.105469 491.191406 297.980469 C 491.769531 297.84375 492.351562 297.757812 492.941406 297.734375 C 493.800781 297.722656 494.617188 297.902344 495.390625 298.269531 C 495.871094 298.472656 496.332031 298.703125 496.789062 298.910156 L 496.898438 298.957031 L 497.050781 299.023438 L 497.207031 299.085938 L 497.335938 299.136719 L 497.597656 299.230469 L 497.707031 299.265625 L 497.902344 299.320312 L 498.007812 299.351562 C 498.105469 299.378906 498.199219 299.398438 498.296875 299.417969 L 498.367188 299.417969 L 498.609375 299.453125 L 498.707031 299.453125 C 498.796875 299.453125 498.886719 299.453125 498.980469 299.453125 L 499.023438 299.453125 C 499.132812 299.453125 499.238281 299.453125 499.347656 299.433594 L 499.441406 299.433594 L 499.707031 299.390625 L 499.785156 299.390625 C 499.902344 299.363281 500.015625 299.335938 500.136719 299.296875 L 500.210938 299.273438 C 500.304688 299.242188 500.402344 299.203125 500.503906 299.160156 L 500.605469 299.121094 C 500.726562 299.0625 500.851562 299.003906 500.980469 298.9375 C 501.992188 298.386719 502.726562 296.339844 505.15625 295.492188 L 505.382812 295.414062 C 505.667969 295.402344 505.941406 295.445312 506.203125 295.546875 C 506.277344 295.578125 506.351562 295.613281 506.421875 295.652344 C 506.488281 295.6875 506.554688 295.726562 506.617188 295.769531 C 507.066406 296.085938 507.417969 296.488281 507.667969 296.976562 C 507.832031 297.265625 507.984375 297.574219 508.148438 297.871094 C 508.210938 297.988281 508.277344 298.101562 508.34375 298.222656 C 508.347656 298.230469 508.355469 298.242188 508.359375 298.253906 C 508.441406 298.382812 508.523438 298.511719 508.613281 298.632812 C 509.464844 299.796875 510.644531 301.046875 512.222656 300.769531 C 513.492188 300.550781 514.722656 299.054688 516.164062 298.847656 C 516.335938 298.824219 516.5 298.804688 516.65625 298.792969 L 516.769531 298.792969 C 516.925781 298.792969 517.070312 298.792969 517.214844 298.792969 L 517.257812 298.792969 C 517.386719 298.792969 517.507812 298.816406 517.628906 298.828125 L 517.722656 298.828125 C 517.839844 298.847656 517.957031 298.875 518.074219 298.90625 L 518.132812 298.925781 C 518.230469 298.957031 518.328125 298.992188 518.421875 299.023438 L 518.496094 299.054688 C 518.597656 299.097656 518.695312 299.144531 518.792969 299.199219 L 518.855469 299.234375 C 518.9375 299.285156 519.015625 299.332031 519.09375 299.386719 L 519.148438 299.425781 C 519.238281 299.488281 519.324219 299.554688 519.402344 299.625 L 519.460938 299.679688 L 519.664062 299.871094 L 519.707031 299.914062 C 519.78125 299.988281 519.851562 300.070312 519.925781 300.152344 L 519.984375 300.222656 C 520.046875 300.296875 520.109375 300.375 520.167969 300.449219 L 520.199219 300.488281 C 520.269531 300.574219 520.335938 300.667969 520.398438 300.757812 C 520.421875 300.785156 520.445312 300.816406 520.464844 300.84375 L 520.636719 301.089844 L 520.761719 301.269531 L 520.886719 301.453125 L 521.117188 301.777344 L 521.136719 301.804688 C 521.199219 301.894531 521.261719 301.984375 521.328125 302.070312 L 521.363281 302.121094 C 521.765625 302.691406 522.242188 303.191406 522.789062 303.625 L 523.007812 303.777344 C 523.089844 303.832031 523.160156 303.878906 523.238281 303.921875 L 523.261719 303.921875 L 523.480469 304.03125 L 523.503906 304.03125 C 523.570312 304.058594 523.636719 304.085938 523.707031 304.105469 L 523.730469 304.105469 C 523.796875 304.125 523.859375 304.140625 523.925781 304.15625 L 523.945312 304.15625 C 524.007812 304.164062 524.070312 304.171875 524.132812 304.175781 L 524.152344 304.175781 C 524.214844 304.179688 524.273438 304.179688 524.335938 304.175781 L 524.527344 304.152344 C 525.109375 303.976562 525.679688 303.761719 526.234375 303.507812 L 526.273438 303.507812 C 526.367188 303.472656 526.464844 303.441406 526.566406 303.410156 C 528.441406 302.835938 529.179688 303.636719 530.84375 304.320312 C 532.335938 304.933594 534.074219 305.421875 535.464844 304.773438 L 535.765625 304.625 L 535.894531 304.558594 L 536.03125 304.484375 L 536.179688 304.398438 L 536.265625 304.347656 L 536.433594 304.246094 L 536.472656 304.222656 L 536.578125 304.15625 C 537.394531 303.550781 538.3125 303.214844 539.328125 303.152344 C 539.660156 303.128906 539.996094 303.132812 540.328125 303.171875 C 541.757812 303.332031 543.125 304.050781 544.527344 304.566406 L 544.566406 304.585938 L 544.792969 304.664062 L 544.863281 304.691406 L 545.0625 304.757812 L 545.140625 304.78125 L 545.332031 304.839844 L 545.421875 304.863281 C 545.484375 304.886719 545.550781 304.902344 545.617188 304.917969 L 545.695312 304.9375 L 545.925781 304.988281 L 545.964844 304.988281 L 546.242188 305.039062 L 546.300781 305.039062 L 546.515625 305.066406 L 547.457031 305.066406 C 547.511719 305.0625 547.566406 305.054688 547.621094 305.046875 L 547.738281 305.027344 L 547.90625 304.996094 L 548.015625 304.972656 L 548.203125 304.921875 L 548.296875 304.890625 C 548.386719 304.859375 548.480469 304.828125 548.574219 304.789062 C 549.652344 304.359375 550.476562 302.945312 551.429688 302.28125 C 551.632812 302.136719 551.84375 302.007812 552.0625 301.886719 L 552.234375 301.792969 C 552.414062 301.695312 552.585938 301.605469 552.785156 301.523438 L 552.921875 301.460938 C 553.421875 301.25 553.933594 301.082031 554.460938 300.957031 C 555.039062 300.820312 555.621094 300.738281 556.210938 300.710938 C 557.078125 300.699219 557.902344 300.875 558.683594 301.25 L 558.949219 301.363281 L 558.96875 301.363281 C 559.34375 301.53125 559.707031 301.714844 560.074219 301.875 L 560.1875 301.925781 L 560.335938 301.988281 L 560.496094 302.054688 L 560.617188 302.101562 C 560.707031 302.136719 560.792969 302.167969 560.882812 302.195312 L 560.992188 302.230469 L 561.1875 302.289062 L 561.292969 302.316406 C 561.386719 302.34375 561.484375 302.363281 561.582031 302.382812 L 561.652344 302.382812 L 561.894531 302.414062 L 561.992188 302.414062 C 562.085938 302.414062 562.175781 302.414062 562.269531 302.414062 L 562.3125 302.414062 C 562.417969 302.414062 562.523438 302.414062 562.632812 302.394531 L 562.722656 302.394531 L 562.992188 302.351562 L 563.074219 302.335938 C 563.1875 302.3125 563.300781 302.28125 563.421875 302.246094 L 563.492188 302.21875 C 563.589844 302.1875 563.6875 302.152344 563.789062 302.109375 L 563.890625 302.066406 C 564.015625 302.011719 564.140625 301.953125 564.265625 301.882812 C 565.28125 301.332031 566.015625 299.285156 568.441406 298.433594 C 569.898438 297.925781 571.65625 298.785156 573.09375 298.851562 C 575.152344 298.949219 576.394531 298.898438 578.285156 297.941406 C 578.382812 297.894531 578.476562 297.835938 578.570312 297.773438 L 578.628906 297.734375 C 578.707031 297.675781 578.785156 297.617188 578.855469 297.550781 L 578.871094 297.53125 C 578.9375 297.46875 579 297.402344 579.058594 297.332031 L 579.074219 297.308594 C 579.714844 296.496094 579.660156 295.429688 580.4375 294.726562 L 580.511719 294.664062 L 580.574219 294.613281 L 580.675781 294.542969 L 580.789062 294.472656 C 580.8125 294.457031 580.839844 294.441406 580.867188 294.429688 L 580.976562 294.375 L 581.050781 294.339844 C 581.113281 294.3125 581.179688 294.285156 581.246094 294.261719 L 581.304688 294.246094 L 581.480469 294.1875 L 581.558594 294.167969 C 581.636719 294.167969 581.714844 294.128906 581.796875 294.113281 L 581.820312 294.113281 L 582.117188 294.070312 L 582.191406 294.070312 L 582.472656 294.042969 L 582.53125 294.042969 C 582.652344 294.042969 582.773438 294.042969 582.902344 294.019531 L 583.820312 294.019531 C 585.550781 294.105469 583.753906 290.035156 585.566406 288.972656 C 587.121094 288.0625 588.453125 289.023438 589.890625 287.578125 L 590.078125 287.371094 L 590.148438 287.28125 C 590.175781 287.242188 590.210938 287.203125 590.238281 287.164062 L 590.296875 287.074219 C 590.320312 287.035156 590.347656 286.996094 590.371094 286.957031 C 590.390625 286.917969 590.398438 286.902344 590.410156 286.878906 C 590.425781 286.855469 590.457031 286.789062 590.476562 286.746094 C 590.5 286.703125 590.496094 286.699219 590.503906 286.679688 C 590.523438 286.632812 590.542969 286.582031 590.558594 286.535156 C 590.558594 286.515625 590.558594 286.5 590.558594 286.484375 C 590.578125 286.429688 590.589844 286.371094 590.605469 286.316406 C 590.617188 286.261719 590.605469 286.296875 590.605469 286.285156 C 590.617188 286.222656 590.628906 286.164062 590.636719 286.101562 C 590.761719 284.9375 590.007812 283.753906 589.734375 282.46875 C 589.671875 282.1875 589.636719 281.902344 589.636719 281.617188 C 589.636719 281.617188 589.636719 281.59375 589.636719 281.585938 C 589.636719 281.445312 589.644531 281.308594 589.664062 281.167969 C 589.664062 281.15625 589.664062 281.144531 589.664062 281.132812 C 589.683594 280.988281 589.71875 280.84375 589.761719 280.703125 C 590.109375 279.527344 593.9375 281.199219 594.921875 277.648438 C 595.25 276.699219 592.925781 275.773438 592.304688 275.160156 Z M 592.304688 275.160156 " fill-opacity="1" fill-rule="nonzero"/><path fill="#f9dda8" d="M 582.984375 272.035156 L 582.984375 290.707031 C 508.355469 297.871094 436.046875 290.707031 436.046875 290.707031 L 436.046875 272.035156 L 474.339844 252.734375 L 500.222656 239.695312 C 500.222656 239.695312 506.929688 235.410156 514.269531 239.695312 L 565.480469 263.792969 Z M 582.984375 272.035156 " fill-opacity="1" fill-rule="nonzero"/><path fill="#bb8e71" d="M 454.132812 275.160156 C 453.355469 275.128906 450.285156 275.066406 449.320312 275.011719 C 446.398438 274.863281 443.488281 274.664062 440.511719 274.554688 C 436.175781 274.371094 436.777344 273.917969 437.011719 273.855469 L 438.214844 273.546875 C 439.441406 273.300781 440.683594 273.195312 441.9375 273.230469 C 453.109375 273.882812 464.570312 274.28125 475.691406 274.789062 C 480.675781 275.015625 488.332031 275.355469 494.816406 275.605469 L 506.933594 276.039062 C 513.226562 276.183594 518.855469 276.566406 524.972656 276.636719 C 531.285156 276.707031 537.792969 276.578125 544.292969 276.09375 C 549.949219 275.675781 555.53125 274.988281 561.152344 274.082031 C 563.335938 273.753906 565.496094 273.335938 567.621094 272.996094 C 569.71875 272.585938 571.816406 272.253906 573.792969 271.878906 C 574.351562 271.769531 574.910156 271.695312 575.476562 271.65625 C 576.449219 271.636719 575.324219 272.121094 574.496094 272.496094 C 573.117188 273.101562 571.695312 273.574219 570.230469 273.921875 L 567.761719 274.527344 C 566.9375 274.699219 566.132812 274.855469 565.382812 274.988281 C 559.496094 276.035156 553.382812 276.761719 547.21875 277.226562 C 541.273438 277.71875 535.167969 277.980469 529.324219 278.011719 C 527.789062 278.011719 526.175781 278.035156 524.726562 278.011719 C 522.894531 277.988281 515.3125 277.804688 506.972656 277.441406 L 484.632812 276.507812 C 474.476562 276.105469 464.539062 275.53125 454.132812 275.160156 Z M 485.980469 339.417969 L 490.652344 339.570312 C 492.4375 339.640625 494.417969 339.644531 496.511719 339.691406 C 498.609375 339.742188 500.820312 339.691406 503.058594 339.71875 C 505.300781 339.746094 507.574219 339.648438 509.796875 339.617188 C 518.6875 339.40625 526.738281 338.824219 528.683594 338.679688 C 530.238281 338.566406 531.929688 338.425781 533.558594 338.25 L 538.238281 337.769531 L 539.417969 337.640625 L 540.601562 337.496094 L 542.96875 337.199219 L 547.703125 336.566406 L 552.433594 335.886719 C 555.691406 335.464844 558.921875 334.945312 562.132812 334.46875 L 564.53125 334.117188 L 566.917969 333.722656 L 571.648438 332.953125 C 573.234375 332.710938 575.074219 332.320312 576.8125 331.9375 C 578.375 331.621094 579.910156 331.199219 581.414062 330.683594 C 582.320312 330.351562 583.554688 329.921875 582.523438 329.890625 C 581.921875 329.902344 581.320312 329.945312 580.71875 330.027344 C 578.574219 330.269531 576.347656 330.589844 574.074219 330.960938 C 571.800781 331.332031 569.476562 331.675781 567.152344 332.089844 C 564.15625 332.636719 561.171875 333.09375 558.199219 333.605469 L 555.96875 333.980469 C 555.226562 334.105469 554.480469 334.210938 553.734375 334.332031 L 549.257812 335.003906 C 547.542969 335.265625 545.820312 335.476562 544.101562 335.699219 C 542.386719 335.925781 540.671875 336.128906 538.964844 336.324219 L 533.855469 336.839844 L 531.320312 337.085938 L 528.800781 337.28125 C 527.179688 337.40625 525.589844 337.515625 524.011719 337.632812 L 519.292969 337.84375 L 516.929688 337.953125 L 514.539062 338.03125 L 509.644531 338.230469 C 509.316406 338.230469 503.667969 338.429688 496.777344 338.378906 C 489.886719 338.332031 481.757812 337.96875 476.492188 337.523438 C 470.609375 337.050781 464.640625 336.4375 458.714844 335.515625 C 455.75 335.050781 452.796875 334.519531 449.863281 333.902344 C 446.933594 333.285156 444.039062 332.554688 441.203125 331.703125 C 439.921875 331.359375 438.625 331.117188 437.304688 330.980469 C 436.871094 330.953125 436.410156 330.917969 435.980469 330.878906 C 435.847656 330.878906 435.574219 330.90625 435.921875 331.179688 C 436.269531 331.457031 437.175781 331.941406 439.421875 332.625 C 442.496094 333.550781 445.507812 334.371094 448.574219 335.035156 C 449.554688 335.226562 452.804688 335.804688 453.617188 335.925781 C 464.328125 337.792969 475.117188 338.949219 485.980469 339.382812 Z M 488.824219 251.273438 C 488.167969 251.890625 486.886719 252.972656 485.714844 253.972656 C 484.542969 254.972656 483.507812 255.914062 483.265625 256.144531 C 483.070312 256.328125 482.886719 256.558594 482.695312 256.769531 C 481.96875 257.566406 481.292969 258.480469 480.648438 259.359375 C 479.917969 260.226562 479.199219 261.105469 478.445312 261.898438 C 478.246094 262.136719 478.089844 262.394531 477.972656 262.683594 C 477.824219 263 477.800781 263.328125 477.902344 263.664062 C 477.980469 263.929688 478.0625 264.265625 478.417969 264.320312 C 478.5625 264.332031 478.699219 264.308594 478.828125 264.25 C 479.589844 263.929688 480.207031 263.429688 480.679688 262.753906 C 481.292969 261.933594 481.796875 261.035156 482.390625 260.195312 C 483.0625 259.242188 483.8125 258.351562 484.636719 257.523438 C 485.035156 257.152344 485.449219 256.800781 485.882812 256.476562 C 486.328125 256.15625 486.734375 255.792969 487.101562 255.382812 C 487.140625 255.34375 487.828125 254.683594 488.691406 253.894531 C 489.554688 253.105469 490.585938 252.199219 491.261719 251.609375 C 492.761719 250.285156 494.199219 248.75 495.808594 247.496094 C 495.972656 247.160156 496.007812 246.8125 495.90625 246.449219 L 495.769531 245.871094 C 495.742188 245.75 495.421875 245.117188 494.859375 245.699219 C 494.464844 246.097656 494.023438 246.398438 493.613281 246.769531 C 493.476562 246.882812 493.117188 247.355469 493.015625 247.464844 C 491.648438 248.886719 490.171875 249.96875 488.824219 251.273438 Z M 504.683594 254.089844 C 503.226562 255.949219 498.78125 260.59375 498.175781 261.234375 C 497.933594 261.496094 497.703125 261.796875 497.476562 262.085938 C 496.578125 263.164062 495.730469 264.359375 494.835938 265.496094 C 493.882812 266.632812 492.921875 267.753906 491.925781 268.785156 C 491.65625 269.085938 491.421875 269.410156 491.222656 269.761719 C 491 270.121094 490.90625 270.511719 490.9375 270.933594 C 490.964844 271.242188 490.980469 271.632812 491.367188 271.675781 C 491.539062 271.671875 491.699219 271.632812 491.847656 271.546875 C 492.8125 271.0625 493.621094 270.390625 494.273438 269.535156 C 495.148438 268.460938 495.886719 267.300781 496.695312 266.1875 C 497.621094 264.90625 498.613281 263.6875 499.621094 262.546875 C 500.628906 261.402344 501.722656 260.605469 502.628906 259.402344 C 502.722656 259.285156 505.96875 255.503906 507.496094 253.644531 C 509.191406 251.546875 510.726562 249.238281 512.390625 247.125 C 512.539062 246.722656 512.53125 246.324219 512.367188 245.929688 C 512.289062 245.742188 512.21875 245.546875 512.136719 245.355469 C 512.085938 245.242188 511.644531 244.683594 511.085938 245.570312 C 510.695312 246.179688 510.242188 246.714844 509.816406 247.28125 C 509.679688 247.460938 509.320312 248.132812 509.214844 248.292969 C 507.808594 250.394531 506.1875 252.164062 504.683594 254.089844 Z M 518.148438 256.328125 C 517.488281 257.507812 515.160156 260.375 514.84375 260.769531 C 514.722656 260.933594 514.617188 261.121094 514.496094 261.304688 C 514.066406 262.003906 513.703125 262.753906 513.3125 263.480469 C 512.867188 264.195312 512.382812 264.878906 511.855469 265.535156 C 511.722656 265.726562 511.625 265.9375 511.566406 266.164062 C 511.496094 266.449219 511.53125 266.722656 511.679688 266.980469 C 511.792969 267.203125 511.925781 267.496094 512.261719 267.5625 C 512.382812 267.582031 512.5 267.570312 512.613281 267.523438 C 513.246094 267.316406 513.71875 266.921875 514.039062 266.339844 C 514.417969 265.640625 514.757812 264.921875 515.0625 264.191406 C 515.453125 263.382812 515.910156 262.617188 516.4375 261.890625 C 516.921875 261.191406 517.605469 260.71875 518.007812 259.941406 C 518.046875 259.867188 519.636719 257.496094 520.351562 256.320312 C 521.152344 255.003906 521.753906 253.492188 522.503906 252.148438 C 522.480469 251.816406 522.355469 251.527344 522.125 251.28125 C 522.003906 251.136719 521.882812 250.984375 521.757812 250.84375 C 521.636719 250.699219 521.148438 250.300781 520.933594 250.878906 C 520.773438 251.253906 520.589844 251.621094 520.382812 251.972656 C 520.320312 252.089844 520.222656 252.535156 520.183594 252.636719 C 519.65625 254.007812 518.828125 255.105469 518.140625 256.328125 Z M 528.414062 259.125 C 527.957031 259.996094 526.191406 262.023438 525.96875 262.308594 C 525.875 262.433594 525.796875 262.5625 525.726562 262.699219 C 525.421875 263.195312 525.1875 263.769531 524.917969 264.308594 C 524.601562 264.832031 524.246094 265.328125 523.847656 265.792969 C 523.746094 265.933594 523.683594 266.089844 523.660156 266.265625 C 523.636719 266.519531 523.707031 266.746094 523.867188 266.941406 C 524.003906 267.199219 524.207031 267.382812 524.476562 267.488281 C 524.585938 267.515625 524.695312 267.515625 524.804688 267.488281 C 525.324219 267.425781 525.710938 267.164062 525.960938 266.703125 C 526.21875 266.183594 526.4375 265.644531 526.621094 265.089844 C 526.875 264.488281 527.191406 263.921875 527.574219 263.390625 C 527.921875 262.890625 528.5 262.59375 528.765625 262.011719 C 528.792969 261.957031 529.945312 260.238281 530.449219 259.371094 C 531.015625 258.40625 531.359375 257.277344 531.890625 256.261719 C 531.8125 255.96875 531.660156 255.71875 531.4375 255.515625 C 531.304688 255.378906 531.175781 255.242188 531.042969 255.109375 C 530.910156 254.976562 530.414062 254.59375 530.292969 255.035156 C 530.203125 255.316406 530.085938 255.589844 529.945312 255.851562 C 529.90625 255.9375 529.875 256.289062 529.847656 256.367188 C 529.515625 257.441406 528.878906 258.226562 528.40625 259.132812 Z M 528.414062 259.125 " fill-opacity="1" fill-rule="nonzero"/><path fill="#a7b931" d="M 520.53125 248.503906 C 520.054688 248.027344 519.480469 248.183594 518.980469 247.871094 C 518.398438 247.492188 518.941406 247.125 519.277344 246.695312 C 519.746094 246.085938 520.410156 245.246094 520.0625 244.378906 C 519.996094 244.195312 519.894531 244.03125 519.753906 243.894531 C 519.613281 243.753906 519.449219 243.65625 519.265625 243.589844 C 519.078125 243.527344 518.886719 243.507812 518.691406 243.53125 C 518.496094 243.558594 518.316406 243.621094 518.148438 243.730469 C 517.484375 244.101562 516.636719 245.382812 515.820312 245.167969 C 515.15625 244.988281 515.179688 243.851562 514.796875 243.296875 C 514.417969 242.742188 513.539062 242.25 513.117188 243.007812 C 512.691406 243.765625 512.519531 245.246094 512.519531 246.105469 C 512.519531 247.085938 512.691406 248.480469 512.394531 249.402344 C 512.121094 250.269531 511.285156 250.492188 510.738281 250.960938 C 510.320312 250.554688 510.683594 249.378906 510.738281 248.867188 C 510.828125 248.152344 510.738281 247.46875 510.769531 246.746094 C 510.847656 245.972656 510.859375 245.195312 510.796875 244.421875 C 510.738281 243.859375 510.796875 243.207031 510.550781 242.738281 C 510.226562 242.136719 509.457031 241.742188 508.945312 242.277344 C 508.429688 242.8125 508.921875 243.785156 508.242188 244.28125 C 507.652344 244.714844 507.308594 244.097656 506.707031 244.078125 C 506.457031 244.085938 506.242188 244.171875 506.0625 244.339844 C 505.617188 243.9375 504.816406 243.765625 504.363281 244.148438 C 503.914062 244.53125 503.890625 245.304688 503.195312 245.339844 C 502.398438 245.378906 502.390625 244.257812 501.65625 244.148438 C 500.976562 244.050781 500.53125 244.890625 500.554688 245.597656 C 500.554688 246.148438 500.9375 246.644531 501.160156 247.152344 C 501.476562 247.824219 501.855469 248.457031 502.296875 249.050781 C 502.683594 249.613281 502.925781 250.25 503.347656 250.796875 C 503.640625 251.175781 504.507812 251.898438 504.363281 252.511719 C 503.683594 252.511719 502.890625 252.863281 502.246094 252.335938 C 501.601562 251.808594 501.027344 250.503906 500.558594 249.699219 C 500.148438 249 499.273438 247.863281 498.578125 247.535156 C 497.878906 247.207031 497.378906 248.164062 497.328125 248.898438 C 497.273438 249.632812 497.847656 250.53125 497.386719 251.117188 C 496.8125 251.84375 495.503906 251.347656 494.773438 251.46875 C 494.570312 251.507812 494.382812 251.582031 494.210938 251.695312 C 494.035156 251.808594 493.890625 251.949219 493.773438 252.121094 C 493.65625 252.289062 493.574219 252.476562 493.527344 252.675781 C 493.484375 252.878906 493.476562 253.082031 493.511719 253.285156 C 493.644531 254.230469 494.59375 254.480469 495.261719 254.679688 C 495.746094 254.8125 496.371094 254.761719 496.070312 255.457031 C 495.808594 256.050781 495.261719 256.300781 495.097656 257.015625 C 494.910156 257.8125 495.257812 258.148438 495.925781 258.289062 C 496.652344 258.441406 497.324219 257.765625 497.898438 257.339844 C 499.148438 256.453125 500.457031 255.652344 501.816406 254.9375 C 502.304688 254.675781 502.800781 254.386719 503.28125 254.140625 C 503.613281 253.96875 504.234375 253.523438 504.59375 253.636719 C 504.757812 254.519531 504.085938 254.855469 503.542969 255.242188 C 502.742188 255.882812 502.082031 256.640625 501.5625 257.527344 C 501.214844 258.132812 500.414062 259.320312 500.785156 260.105469 C 501.238281 261.050781 502.445312 260.679688 502.992188 260.1875 C 504.8125 258.53125 504.019531 262.414062 504.804688 263.214844 C 505.46875 263.890625 506.503906 263.523438 506.789062 262.585938 C 506.886719 262.261719 506.789062 261.746094 507.023438 261.503906 C 507.375 261.15625 507.660156 261.464844 507.832031 261.742188 C 508.140625 262.230469 508.242188 262.640625 508.84375 262.695312 C 509.507812 262.753906 509.652344 262.25 509.648438 261.554688 C 509.617188 260.628906 509.324219 259.800781 508.765625 259.0625 C 508.378906 258.480469 508.03125 257.875 507.714844 257.246094 C 507.621094 257.070312 507.542969 256.898438 507.449219 256.703125 C 507.648438 256.253906 507.871094 255.8125 508.117188 255.386719 C 508.285156 255.105469 508.445312 254.773438 508.613281 254.421875 C 509.136719 254.65625 509.632812 254.933594 510.109375 255.253906 C 510.167969 255.875 510.226562 256.5 510.246094 257.128906 C 510.285156 257.859375 510.285156 258.589844 510.246094 259.320312 C 510.132812 260.25 510.289062 261.128906 510.710938 261.960938 C 511.042969 262.539062 511.410156 262.855469 511.925781 262.363281 C 512.445312 261.871094 512.277344 261.519531 512.300781 260.90625 C 512.300781 260.558594 512.410156 260.125 512.859375 260.175781 C 513.175781 260.210938 513.332031 260.703125 513.558594 260.90625 C 514.257812 261.492188 515.273438 261.105469 515.496094 260.109375 C 515.757812 258.921875 513.238281 256.265625 515.535156 256.402344 C 516.234375 256.449219 517.398438 255.949219 517.316406 254.867188 C 517.246094 253.972656 516.027344 253.511719 515.4375 253.257812 C 514.578125 252.867188 513.671875 252.675781 512.726562 252.683594 C 512.113281 252.710938 511.394531 252.882812 511.105469 252.042969 C 511.347656 251.695312 512.074219 251.667969 512.429688 251.585938 C 512.945312 251.472656 513.480469 251.378906 514.023438 251.269531 C 515.460938 250.957031 516.910156 250.746094 518.375 250.640625 C 519.078125 250.597656 519.933594 250.722656 520.476562 250.109375 C 521.019531 249.5 521.066406 249.042969 520.53125 248.503906 Z M 508.5 253.816406 C 508.042969 253.601562 507.585938 253.300781 507.101562 253.117188 C 506.628906 252.96875 506.144531 252.859375 505.652344 252.796875 C 505.65625 252.597656 505.710938 252.417969 505.820312 252.253906 C 506.128906 251.824219 506.476562 251.433594 506.871094 251.082031 L 506.980469 251.148438 C 507.769531 251.613281 508.628906 251.398438 509.429688 251.71875 C 509.601562 251.789062 509.734375 251.90625 509.828125 252.070312 C 509.449219 252.453125 509.097656 252.863281 508.777344 253.296875 C 508.683594 253.457031 508.59375 253.636719 508.5 253.816406 Z M 507.890625 254.9375 C 507.640625 255.332031 507.417969 255.742188 507.214844 256.160156 C 506.933594 255.550781 506.65625 254.933594 506.347656 254.335938 C 506.128906 253.910156 505.769531 253.492188 505.675781 253.039062 C 506.550781 253.175781 507.472656 253.8125 508.265625 254.238281 C 508.144531 254.476562 508.023438 254.71875 507.890625 254.9375 Z M 508.855469 253.980469 C 509.128906 253.359375 509.488281 252.789062 509.929688 252.273438 C 510.070312 252.710938 509.976562 253.292969 510 253.785156 C 510 254.0625 510.03125 254.339844 510.054688 254.613281 C 509.675781 254.367188 509.273438 254.15625 508.855469 253.980469 Z M 508.855469 253.980469 " fill-opacity="1" fill-rule="nonzero"/></svg>