<svg xmlns="http://www.w3.org/2000/svg" xmlns:xlink="http://www.w3.org/1999/xlink" width="1366" zoomAndPan="magnify" viewBox="0 0 1024.5 576" height="768" preserveAspectRatio="xMidYMid meet" version="1.0"><defs><clipPath id="efcec4dfc5"><path d="M 396.855469 188.578125 L 626.992188 188.578125 L 626.992188 418.714844 L 396.855469 418.714844 Z M 396.855469 188.578125 " clip-rule="nonzero"/></clipPath></defs><g clip-path="url(#efcec4dfc5)"><path fill="#3b82f6" d="M 626.992188 393.144531 L 626.992188 214.148438 C 626.992188 200.027344 615.546875 188.578125 601.421875 188.578125 L 422.425781 188.578125 C 408.304688 188.578125 396.855469 200.027344 396.855469 214.148438 L 396.855469 393.144531 C 396.855469 407.269531 408.304688 418.714844 422.425781 418.714844 L 601.421875 418.714844 C 615.546875 418.714844 626.992188 407.269531 626.992188 393.144531 Z M 511.925781 265.289062 C 533.109375 265.289062 550.28125 282.460938 550.28125 303.648438 C 550.28125 324.832031 533.109375 342.003906 511.925781 342.003906 C 490.742188 342.003906 473.570312 324.832031 473.570312 303.648438 C 473.570312 282.460938 490.742188 265.289062 511.925781 265.289062 Z M 439.003906 399.539062 C 446.597656 380.8125 464.902344 367.574219 486.355469 367.574219 L 537.496094 367.574219 C 558.949219 367.574219 577.25 380.8125 584.84375 399.539062 Z M 439.003906 399.539062 " fill-opacity="0.3" fill-rule="nonzero"/></g><path fill="#3b82f6" d="M 511.925781 265.289062 C 533.109375 265.289062 550.28125 282.460938 550.28125 303.648438 C 550.28125 324.832031 533.109375 342.003906 511.925781 342.003906 C 490.742188 342.003906 473.570312 324.832031 473.570312 303.648438 C 473.570312 282.460938 490.742188 265.289062 511.925781 265.289062 Z M 439.003906 399.539062 C 446.597656 380.8125 464.902344 367.574219 486.355469 367.574219 L 537.496094 367.574219 C 558.949219 367.574219 577.25 380.8125 584.84375 399.539062 Z M 439.003906 399.539062 " fill-opacity="1" fill-rule="nonzero"/></svg>